_Griffith_Gothic-Black_Italic_WebTT.ufo
<glyph name="exclam" format="1">
  <advance width="575.488"/>
  <unicode hex="0021"/>
  <outline>
    <contour>
      <point x="197" y="326" type="qcurve" smooth="yes"/>
      <point x="268.641791045" y="326.0"/>
      <point x="367.0" y="229.134328358"/>
      <point x="367" y="156" type="qcurve" smooth="yes"/>
      <point x="367.0" y="83.6119402985"/>
      <point x="268.641791045" y="-14.0"/>
      <point x="197" y="-14" type="qcurve" smooth="yes"/>
      <point x="123.119402985" y="-14.0"/>
      <point x="27.0" y="83.6119402985"/>
      <point x="27" y="156" type="qcurve" smooth="yes"/>
      <point x="27.0" y="229.134328358"/>
      <point x="123.119402985" y="326.0"/>
    </contour>
    <contour>
      <point x="338" y="1475" type="line"/>
      <point x="709" y="1475" type="line"/>
      <point x="358" y="481" type="line"/>
      <point x="178" y="481" type="line"/>
    </contour>
  </outline>
</glyph>
<glyph name="quotedbl" format="1">
  <advance width="905.216"/>
  <unicode hex="0022"/>
  <outline>
    <contour>
      <point x="276" y="1475" type="line"/>
      <point x="598" y="1475" type="line"/>
      <point x="375" y="901" type="line"/>
      <point x="213" y="901" type="line"/>
    </contour>
    <contour>
      <point x="705" y="1475" type="line"/>
      <point x="1026" y="1475" type="line"/>
      <point x="803" y="901" type="line"/>
      <point x="641" y="901" type="line"/>
    </contour>
  </outline>
</glyph>
<glyph name="numbersign" format="1">
  <advance width="1325.056"/>
  <unicode hex="0023"/>
  <outline>
    <contour>
      <point x="1180" y="1155" type="line"/>
      <point x="1403" y="1155" type="line"/>
      <point x="1339" y="905" type="line"/>
      <point x="1092" y="905" type="line"/>
      <point x="977" y="569" type="line"/>
      <point x="1229" y="569" type="line"/>
      <point x="1165" y="319" type="line"/>
      <point x="889" y="319" type="line"/>
      <point x="778" y="0" type="line"/>
      <point x="629" y="0" type="line"/>
      <point x="739" y="319" type="line"/>
      <point x="397" y="319" type="line"/>
      <point x="287" y="0" type="line"/>
      <point x="135" y="0" type="line"/>
      <point x="246" y="319" type="line"/>
      <point x="25" y="319" type="line"/>
      <point x="88" y="569" type="line"/>
      <point x="334" y="569" type="line"/>
      <point x="449" y="905" type="line"/>
      <point x="199" y="905" type="line"/>
      <point x="260" y="1155" type="line"/>
      <point x="537" y="1155" type="line"/>
      <point x="647" y="1475" type="line"/>
      <point x="799" y="1475" type="line"/>
      <point x="688" y="1155" type="line"/>
      <point x="1028" y="1155" type="line"/>
      <point x="1139" y="1475" type="line"/>
      <point x="1290" y="1475" type="line"/>
    </contour>
    <contour>
      <point x="827" y="561" type="line"/>
      <point x="950" y="913" type="line"/>
      <point x="600" y="913" type="line"/>
      <point x="477" y="561" type="line"/>
    </contour>
  </outline>
</glyph>
<glyph name="dollar" format="1">
  <advance width="1204.224"/>
  <unicode hex="0024"/>
  <outline>
    <contour>
      <point x="918" y="1456" type="line"/>
      <point x="1018.74626866" y="1432.86567164"/>
      <point x="1186.34328358" y="1335.64179104"/>
      <point x="1255" y="1264" type="qcurve"/>
      <point x="1087" y="1087" type="line"/>
      <point x="1038.49253731" y="1146.70149254"/>
      <point x="916.656716418" y="1229.59701493"/>
      <point x="848" y="1249" type="qcurve"/>
      <point x="745" y="842" type="line"/>
      <point x="936.044776119" y="760.656716418"/>
      <point x="1108.0" y="581.044776119"/>
      <point x="1108" y="440" type="qcurve" smooth="yes"/>
      <point x="1108.0" y="244.47761194"/>
      <point x="818.223880597" y="2.0"/>
      <point x="563" y="2" type="qcurve" smooth="yes"/>
      <point x="557" y="2" type="line"/>
      <point x="508" y="-195" type="line"/>
      <point x="340" y="-195" type="line"/>
      <point x="391" y="18" type="line"/>
      <point x="256.671641791" y="45.6119402985"/>
      <point x="50.1492537313" y="173.164179104"/>
      <point x="-20" y="256" type="qcurve"/>
      <point x="147" y="434" type="line"/>
      <point x="216.402985075" y="348.179104478"/>
      <point x="366.731343284" y="241.149253731"/>
      <point x="463" y="221" type="qcurve"/>
      <point x="573" y="664" type="line"/>
      <point x="411.059701493" y="735.641791045"/>
      <point x="229.0" y="902.208955224"/>
      <point x="229" y="1044" type="qcurve" smooth="yes"/>
      <point x="229.0" y="1246.23880597"/>
      <point x="528.582089552" y="1473.0"/>
      <point x="745" y="1473" type="qcurve" smooth="yes"/>
      <point x="754" y="1473" type="line"/>
      <point x="776" y="1561" type="line"/>
      <point x="944" y="1561" type="line"/>
    </contour>
    <contour>
      <point x="588" y="211" type="line"/>
      <point x="717.850746269" y="212.492537313"/>
      <point x="840.0" y="329.194029851"/>
      <point x="840" y="418" type="qcurve" smooth="yes"/>
      <point x="840.0" y="479.194029851"/>
      <point x="769.343283582" y="569.462686567"/>
      <point x="688" y="612" type="qcurve"/>
    </contour>
    <contour>
      <point x="631" y="895" type="qcurve"/>
      <point x="723" y="1264" type="line"/>
      <point x="617.776119403" y="1261.01492537"/>
      <point x="498.0" y="1157.29850746"/>
      <point x="498" y="1067" type="qcurve" smooth="yes"/>
      <point x="498.0" y="1013.26865672"/>
      <point x="557.119402985" y="934.552238806"/>
    </contour>
  </outline>
</glyph>
<glyph name="parenleft" format="1">
  <advance width="763.904"/>
  <unicode hex="0028"/>
  <outline>
    <contour>
      <point x="688" y="1505" type="qcurve"/>
      <point x="983" y="1505" type="line"/>
      <point x="663.597014925" y="1246.79104478"/>
      <point x="408.0" y="711.880597015"/>
      <point x="408" y="438" type="qcurve" smooth="yes"/>
      <point x="408.0" y="255.164179104"/>
      <point x="479.388059701" y="-36.0447761194"/>
      <point x="557" y="-195" type="qcurve"/>
      <point x="307" y="-195" type="line"/>
      <point x="213.71641791" y="-61.4179104478"/>
      <point x="88.0" y="272.492537313"/>
      <point x="88" y="471" type="qcurve" smooth="yes"/>
      <point x="88.0" y="773.985074627"/>
      <point x="400.686567164" y="1309.47761194"/>
    </contour>
  </outline>
</glyph>
<glyph name="asterisk" format="1">
  <advance width="901.12"/>
  <unicode hex="002A"/>
  <outline>
    <contour>
      <point x="903" y="1350" type="line"/>
      <point x="983" y="1100" type="line"/>
      <point x="674" y="1081" type="line"/>
      <point x="922" y="883" type="line"/>
      <point x="707" y="727" type="line"/>
      <point x="586" y="1028" type="line"/>
      <point x="465" y="727" type="line"/>
      <point x="250" y="883" type="line"/>
      <point x="498" y="1081" type="line"/>
      <point x="186" y="1100" type="line"/>
      <point x="268" y="1350" type="line"/>
      <point x="535" y="1171" type="line"/>
      <point x="453" y="1475" type="line"/>
      <point x="717" y="1475" type="line"/>
      <point x="635" y="1171" type="line"/>
    </contour>
  </outline>
</glyph>
<glyph name="plus" format="1">
  <advance width="1228.8"/>
  <unicode hex="002B"/>
  <outline>
    <contour>
      <point x="1196" y="856" type="line"/>
      <point x="1196" y="598" type="line"/>
      <point x="791" y="598" type="line"/>
      <point x="791" y="190" type="line"/>
      <point x="528" y="190" type="line"/>
      <point x="528" y="598" type="line"/>
      <point x="123" y="598" type="line"/>
      <point x="123" y="856" type="line"/>
      <point x="528" y="856" type="line"/>
      <point x="528" y="1264" type="line"/>
      <point x="791" y="1264" type="line"/>
      <point x="791" y="856" type="line"/>
    </contour>
  </outline>
</glyph>
<glyph name="period" format="1">
  <advance width="483.328"/>
  <unicode hex="002E"/>
  <outline>
    <contour>
      <point x="152" y="340" type="qcurve" smooth="yes"/>
      <point x="228.119402985" y="340.0"/>
      <point x="328.0" y="238.626865672"/>
      <point x="328" y="164" type="qcurve" smooth="yes"/>
      <point x="328.0" y="87.1343283582"/>
      <point x="228.119402985" y="-14.0"/>
      <point x="152" y="-14" type="qcurve" smooth="yes"/>
      <point x="75.1343283582" y="-14.0"/>
      <point x="-27.0" y="87.1343283582"/>
      <point x="-27" y="164" type="qcurve" smooth="yes"/>
      <point x="-27.0" y="238.626865672"/>
      <point x="75.1343283582" y="340.0"/>
    </contour>
  </outline>
</glyph>
<glyph name="slash" format="1">
  <advance width="897.024"/>
  <unicode hex="002F"/>
  <outline>
    <contour>
      <point x="813" y="1505" type="line"/>
      <point x="1114" y="1505" type="line"/>
      <point x="78" y="-195" type="line"/>
      <point x="-223" y="-195" type="line"/>
    </contour>
  </outline>
</glyph>
<glyph name="zero" format="1">
  <advance width="1261.568"/>
  <unicode hex="0030"/>
  <outline>
    <contour>
      <point x="1262" y="1016" type="qcurve" smooth="yes"/>
      <point x="1262" y="1008" type="line" smooth="yes"/>
      <point x="1262.0" y="945.313432836"/>
      <point x="1240.43283582" y="766.940298507"/>
      <point x="1227" y="705" type="qcurve" smooth="yes"/>
      <point x="1144.1641791" y="340.820895522"/>
      <point x="801.208955224" y="-25.0"/>
      <point x="543" y="-25" type="qcurve" smooth="yes"/>
      <point x="336.28358209" y="-25.0"/>
      <point x="94.0" y="231.388059701"/>
      <point x="94" y="459" type="qcurve" smooth="yes"/>
      <point x="94" y="467" type="line" smooth="yes"/>
      <point x="94.0" y="529.686567164"/>
      <point x="115.567164179" y="707.313432836"/>
      <point x="129" y="770" type="qcurve" smooth="yes"/>
      <point x="213.328358209" y="1133.43283582"/>
      <point x="553.298507463" y="1499.0"/>
      <point x="813" y="1499" type="qcurve" smooth="yes"/>
      <point x="1017.47761194" y="1499.0"/>
      <point x="1262.0" y="1243.6119403"/>
    </contour>
    <contour>
      <point x="883" y="659" type="qcurve" smooth="yes"/>
      <point x="915.089552239" y="773.925373134"/>
      <point x="942.0" y="959.820895522"/>
      <point x="942" y="1024" type="qcurve" smooth="yes"/>
      <point x="942" y="1030" type="line" smooth="yes"/>
      <point x="942.0" y="1130.74626866"/>
      <point x="865.343283582" y="1251.0"/>
      <point x="784" y="1251" type="qcurve" smooth="yes"/>
      <point x="683.253731343" y="1251.0"/>
      <point x="530.701492537" y="1035.14925373"/>
      <point x="471" y="815" type="qcurve" smooth="yes"/>
      <point x="438.910447761" y="700.820895522"/>
      <point x="414.0" y="515.179104478"/>
      <point x="414" y="451" type="qcurve" smooth="yes"/>
      <point x="414" y="444" type="line" smooth="yes"/>
      <point x="414.0" y="343.253731343"/>
      <point x="488.910447761" y="223.0"/>
      <point x="571" y="223" type="qcurve" smooth="yes"/>
      <point x="672.492537313" y="223.0"/>
      <point x="823.298507463" y="439.597014925"/>
    </contour>
  </outline>
</glyph>
<glyph name="one" format="1">
  <advance width="925.696"/>
  <unicode hex="0031"/>
  <outline>
    <contour>
      <point x="291" y="1475" type="line"/>
      <point x="881" y="1475" type="line"/>
      <point x="563" y="197" type="line"/>
      <point x="803" y="197" type="line"/>
      <point x="754" y="0" type="line"/>
      <point x="-51" y="0" type="line"/>
      <point x="-2" y="197" type="line"/>
      <point x="242" y="197" type="line"/>
      <point x="510" y="1278" type="line"/>
      <point x="242" y="1278" type="line"/>
    </contour>
  </outline>
</glyph>
<glyph name="four" format="1">
  <advance width="1257.472"/>
  <unicode hex="0034"/>
  <outline>
    <contour>
      <point x="854" y="1475" type="line"/>
      <point x="1251" y="1475" type="line"/>
      <point x="1020" y="543" type="line"/>
      <point x="1212" y="543" type="line"/>
      <point x="1167" y="362" type="line"/>
      <point x="973" y="362" type="line"/>
      <point x="883" y="0" type="line"/>
      <point x="578" y="0" type="line"/>
      <point x="668" y="362" type="line"/>
      <point x="8" y="362" type="line"/>
      <point x="70" y="608" type="line"/>
    </contour>
    <contour>
      <point x="715" y="543" type="line"/>
      <point x="881" y="1210" type="line"/>
      <point x="862" y="1210" type="line"/>
      <point x="272" y="561" type="line"/>
      <point x="270" y="543" type="line"/>
    </contour>
  </outline>
</glyph>
<glyph name="five" format="1">
  <advance width="1159.168"/>
  <unicode hex="0035"/>
  <outline>
    <contour>
      <point x="379" y="1475" type="line"/>
      <point x="1208" y="1475" type="line"/>
      <point x="1155" y="1221" type="line"/>
      <point x="528" y="1221" type="line"/>
      <point x="416" y="852" type="line"/>
      <point x="430" y="852" type="line"/>
      <point x="497.164179104" y="907.223880597"/>
      <point x="641.23880597" y="973.0"/>
      <point x="739" y="973" type="qcurve" smooth="yes"/>
      <point x="904.671641791" y="973.0"/>
      <point x="1100.0" y="771.582089552"/>
      <point x="1100" y="588" type="qcurve" smooth="yes"/>
      <point x="1100" y="582" type="line" smooth="yes"/>
      <point x="1100.0" y="303.641791045"/>
      <point x="756.28358209" y="-20.0"/>
      <point x="463" y="-20" type="qcurve" smooth="yes"/>
      <point x="308.52238806" y="-20.0"/>
      <point x="60.8656716418" y="49.8656716418"/>
      <point x="-66" y="123" type="qcurve"/>
      <point x="66" y="342" type="line"/>
      <point x="160.776119403" y="286.776119403"/>
      <point x="356.253731343" y="223.0"/>
      <point x="457" y="223" type="qcurve" smooth="yes"/>
      <point x="600.28358209" y="223.0"/>
      <point x="778.0" y="397.955223881"/>
      <point x="778" y="539" type="qcurve" smooth="yes"/>
      <point x="778" y="547" type="line" smooth="yes"/>
      <point x="778.0" y="649.23880597"/>
      <point x="676.119402985" y="748.0"/>
      <point x="600" y="748" type="qcurve" smooth="yes"/>
      <point x="531.343283582" y="748.0"/>
      <point x="426.925373134" y="694.253731343"/>
      <point x="362" y="645" type="qcurve"/>
      <point x="137" y="645" type="line"/>
    </contour>
  </outline>
</glyph>
<glyph name="six" format="1">
  <advance width="1218.56"/>
  <unicode hex="0036"/>
  <outline>
    <contour>
      <point x="780" y="1475" type="qcurve"/>
      <point x="1221" y="1475" type="line"/>
      <point x="928.462686567" y="1312.31343284"/>
      <point x="515.850746269" y="965.537313433"/>
      <point x="436" y="823" type="qcurve"/>
      <point x="449" y="823" type="line"/>
      <point x="525.119402985" y="887.179104478"/>
      <point x="697.268656716" y="956.0"/>
      <point x="801" y="956" type="qcurve" smooth="yes"/>
      <point x="961.447761194" y="956.0"/>
      <point x="1167.0" y="767.820895522"/>
      <point x="1167" y="582" type="qcurve" smooth="yes"/>
      <point x="1167.0" y="335.731343284"/>
      <point x="818.164179104" y="-25.0"/>
      <point x="551" y="-25" type="qcurve" smooth="yes"/>
      <point x="335.328358209" y="-25.0"/>
      <point x="68.0" y="185.880597015"/>
      <point x="68" y="412" type="qcurve" smooth="yes"/>
      <point x="68.0" y="729.910447761"/>
      <point x="466.567164179" y="1271.26865672"/>
    </contour>
    <contour>
      <point x="563" y="190" type="qcurve" smooth="yes"/>
      <point x="683.895522388" y="190.0"/>
      <point x="850.0" y="398.940298507"/>
      <point x="850" y="537" type="qcurve" smooth="yes"/>
      <point x="850.0" y="634.76119403"/>
      <point x="746.791044776" y="743.0"/>
      <point x="655" y="743" type="qcurve" smooth="yes"/>
      <point x="536.343283582" y="743.0"/>
      <point x="367.0" y="539.537313433"/>
      <point x="367" y="397" type="qcurve" smooth="yes"/>
      <point x="367.0" y="300.731343284"/>
      <point x="472.701492537" y="190.0"/>
    </contour>
  </outline>
</glyph>
<glyph name="eight" format="1">
  <advance width="1228.8"/>
  <unicode hex="0038"/>
  <outline>
    <contour>
      <point x="764" y="1499" type="qcurve" smooth="yes"/>
      <point x="987.134328358" y="1499.0"/>
      <point x="1243.0" y="1306.43283582"/>
      <point x="1243" y="1143" type="qcurve" smooth="yes"/>
      <point x="1243.0" y="997.47761194"/>
      <point x="1056.3880597" y="801.582089552"/>
      <point x="934" y="768" type="qcurve"/>
      <point x="932" y="756" type="line"/>
      <point x="1017.82089552" y="719.432835821"/>
      <point x="1139.0" y="564.671641791"/>
      <point x="1139" y="449" type="qcurve" smooth="yes"/>
      <point x="1139.0" y="242.28358209"/>
      <point x="818.194029851" y="-25.0"/>
      <point x="557" y="-25" type="qcurve" smooth="yes"/>
      <point x="320.432835821" y="-25.0"/>
      <point x="41.0" y="184.910447761"/>
      <point x="41" y="367" type="qcurve" smooth="yes"/>
      <point x="41.0" y="540.880597015"/>
      <point x="259.492537313" y="765.447761194"/>
      <point x="408" y="805" type="qcurve"/>
      <point x="410" y="817" type="line"/>
      <point x="327.164179104" y="864.76119403"/>
      <point x="238.0" y="997.731343284"/>
      <point x="238" y="1094" type="qcurve" smooth="yes"/>
      <point x="238.0" y="1264.89552239"/>
      <point x="530.417910448" y="1499.0"/>
    </contour>
    <contour>
      <point x="569" y="188" type="qcurve" smooth="yes"/>
      <point x="689.895522388" y="188.0"/>
      <point x="840.0" y="359.805970149"/>
      <point x="840" y="471" type="qcurve" smooth="yes"/>
      <point x="840.0" y="567.268656716"/>
      <point x="720.76119403" y="686.0"/>
      <point x="623" y="686" type="qcurve" smooth="yes"/>
      <point x="506.582089552" y="686.0"/>
      <point x="352.0" y="511.447761194"/>
      <point x="352" y="401" type="qcurve" smooth="yes"/>
      <point x="352.0" y="304.731343284"/>
      <point x="468.253731343" y="188.0"/>
    </contour>
    <contour>
      <point x="711" y="870" type="qcurve" smooth="yes"/>
      <point x="814.731343284" y="870.0"/>
      <point x="938.0" y="1025.19402985"/>
      <point x="938" y="1114" type="qcurve" smooth="yes"/>
      <point x="938.0" y="1195.34328358"/>
      <point x="837.582089552" y="1286.0"/>
      <point x="754" y="1286" type="qcurve" smooth="yes"/>
      <point x="652.507462687" y="1286.0"/>
      <point x="535.0" y="1139.56716418"/>
      <point x="535" y="1053" type="qcurve" smooth="yes"/>
      <point x="535.0" y="967.179104478"/>
      <point x="635.626865672" y="870.0"/>
    </contour>
  </outline>
</glyph>
<glyph name="nine" format="1">
  <advance width="1218.56"/>
  <unicode hex="0039"/>
  <outline>
    <contour>
      <point x="764" y="1499" type="qcurve" smooth="yes"/>
      <point x="978.179104478" y="1499.0"/>
      <point x="1247.0" y="1289.11940299"/>
      <point x="1247" y="1063" type="qcurve" smooth="yes"/>
      <point x="1247.0" y="745.089552239"/>
      <point x="847.686567164" y="202.985074627"/>
      <point x="535" y="0" type="qcurve"/>
      <point x="94" y="0" type="line"/>
      <point x="385.791044776" y="161.940298507"/>
      <point x="799.149253731" y="509.208955224"/>
      <point x="879" y="651" type="qcurve"/>
      <point x="866" y="651" type="line"/>
      <point x="788.388059701" y="586.820895522"/>
      <point x="616.23880597" y="518.0"/>
      <point x="514" y="518" type="qcurve" smooth="yes"/>
      <point x="352.059701493" y="518.0"/>
      <point x="147.0" y="706.432835821"/>
      <point x="147" y="893" type="qcurve" smooth="yes"/>
      <point x="147.0" y="1139.26865672"/>
      <point x="496.835820896" y="1499.0"/>
    </contour>
    <contour>
      <point x="657" y="731" type="qcurve" smooth="yes"/>
      <point x="776.402985075" y="731.0"/>
      <point x="946.0" y="935.208955224"/>
      <point x="946" y="1077" type="qcurve" smooth="yes"/>
      <point x="946.0" y="1173.26865672"/>
      <point x="839.552238806" y="1284.0"/>
      <point x="750" y="1284" type="qcurve" smooth="yes"/>
      <point x="629.104477612" y="1284.0"/>
      <point x="465.0" y="1075.31343284"/>
      <point x="465" y="938" type="qcurve" smooth="yes"/>
      <point x="465.0" y="840.23880597"/>
      <point x="565.955223881" y="731.0"/>
    </contour>
  </outline>
</glyph>
<glyph name="colon" format="1">
  <advance width="509.952"/>
  <unicode hex="003A"/>
  <outline>
    <contour>
      <point x="164" y="340" type="qcurve" smooth="yes"/>
      <point x="240.119402985" y="340.0"/>
      <point x="342.0" y="238.626865672"/>
      <point x="342" y="164" type="qcurve" smooth="yes"/>
      <point x="342.0" y="87.1343283582"/>
      <point x="240.119402985" y="-14.0"/>
      <point x="164" y="-14" type="qcurve" smooth="yes"/>
      <point x="88.6268656716" y="-14.0"/>
      <point x="-12.0" y="87.1343283582"/>
      <point x="-12" y="164" type="qcurve" smooth="yes"/>
      <point x="-12.0" y="238.626865672"/>
      <point x="88.6268656716" y="340.0"/>
    </contour>
    <contour>
      <point x="350" y="1102" type="qcurve" smooth="yes"/>
      <point x="426.865671642" y="1102.0"/>
      <point x="528.0" y="1000.62686567"/>
      <point x="528" y="926" type="qcurve" smooth="yes"/>
      <point x="528.0" y="849.134328358"/>
      <point x="426.865671642" y="748.0"/>
      <point x="350" y="748" type="qcurve" smooth="yes"/>
      <point x="273.880597015" y="748.0"/>
      <point x="172.0" y="849.134328358"/>
      <point x="172" y="926" type="qcurve" smooth="yes"/>
      <point x="172.0" y="1000.62686567"/>
      <point x="273.880597015" y="1102.0"/>
    </contour>
  </outline>
</glyph>
<glyph name="semicolon" format="1">
  <advance width="509.952"/>
  <unicode hex="003B"/>
  <outline>
    <contour>
      <point x="356" y="1102" type="qcurve" smooth="yes"/>
      <point x="432.865671642" y="1102.0"/>
      <point x="535.0" y="1000.62686567"/>
      <point x="535" y="926" type="qcurve" smooth="yes"/>
      <point x="535.0" y="849.134328358"/>
      <point x="432.865671642" y="748.0"/>
      <point x="356" y="748" type="qcurve" smooth="yes"/>
      <point x="281.373134328" y="748.0"/>
      <point x="180.0" y="849.134328358"/>
      <point x="180" y="926" type="qcurve" smooth="yes"/>
      <point x="180.0" y="1000.62686567"/>
      <point x="281.373134328" y="1102.0"/>
    </contour>
    <contour>
      <point x="55" y="338" type="line"/>
      <point x="393" y="338" type="line"/>
      <point x="35" y="-236" type="line"/>
      <point x="-143" y="-236" type="line"/>
    </contour>
  </outline>
</glyph>
<glyph name="less" format="1">
  <advance width="1228.8"/>
  <unicode hex="003C"/>
  <outline>
    <contour>
      <point x="1180" y="426" type="line"/>
      <point x="1180" y="154" type="line"/>
      <point x="129" y="604" type="line"/>
      <point x="129" y="850" type="line"/>
      <point x="1180" y="1300" type="line"/>
      <point x="1180" y="1028" type="line"/>
      <point x="424" y="727" type="line"/>
    </contour>
  </outline>
</glyph>
<glyph name="equal" format="1">
  <advance width="1228.8"/>
  <unicode hex="003D"/>
  <outline>
    <contour>
      <point x="1163" y="592" type="line"/>
      <point x="1163" y="332" type="line"/>
      <point x="158" y="332" type="line"/>
      <point x="158" y="592" type="line"/>
    </contour>
    <contour>
      <point x="1163" y="1122" type="line"/>
      <point x="1163" y="862" type="line"/>
      <point x="158" y="862" type="line"/>
      <point x="158" y="1122" type="line"/>
    </contour>
  </outline>
</glyph>
<glyph name="question" format="1">
  <advance width="1017.856"/>
  <unicode hex="003F"/>
  <outline>
    <contour>
      <point x="694" y="1499" type="qcurve" smooth="yes"/>
      <point x="879.074626866" y="1499.0"/>
      <point x="1108.0" y="1322.26865672"/>
      <point x="1108" y="1176" type="qcurve" smooth="yes"/>
      <point x="1108.0" y="1018.53731343"/>
      <point x="932.985074627" y="814.820895522"/>
      <point x="780" y="729" type="qcurve" smooth="yes"/>
      <point x="668.805970149" y="667.805970149"/>
      <point x="572.104477612" y="571.298507463"/>
      <point x="543" y="481" type="qcurve"/>
      <point x="338" y="481" type="line"/>
      <point x="354.417910448" y="644.432835821"/>
      <point x="469.671641791" y="809.656716418"/>
      <point x="604" y="891" type="qcurve" smooth="yes"/>
      <point x="691.313432836" y="943.23880597"/>
      <point x="799.0" y="1060.6119403"/>
      <point x="799" y="1133" type="qcurve" smooth="yes"/>
      <point x="799.0" y="1195.68656716"/>
      <point x="723.940298507" y="1262.0"/>
      <point x="662" y="1262" type="qcurve" smooth="yes"/>
      <point x="597.074626866" y="1262.0"/>
      <point x="468.373134328" y="1167.71641791"/>
      <point x="393" y="1061" type="qcurve"/>
      <point x="184" y="1188" type="line"/>
      <point x="283.253731343" y="1343.97014925"/>
      <point x="541.014925373" y="1499.0"/>
    </contour>
    <contour>
      <point x="367" y="326" type="qcurve" smooth="yes"/>
      <point x="438.641791045" y="326.0"/>
      <point x="537.0" y="229.134328358"/>
      <point x="537" y="156" type="qcurve" smooth="yes"/>
      <point x="537.0" y="83.6119402985"/>
      <point x="438.641791045" y="-14.0"/>
      <point x="367" y="-14" type="qcurve" smooth="yes"/>
      <point x="293.119402985" y="-14.0"/>
      <point x="197.0" y="83.6119402985"/>
      <point x="197" y="156" type="qcurve" smooth="yes"/>
      <point x="197.0" y="229.134328358"/>
      <point x="293.119402985" y="326.0"/>
    </contour>
  </outline>
</glyph>
<glyph name="at" format="1">
  <advance width="1986.56"/>
  <unicode hex="0040"/>
  <outline>
    <contour>
      <point x="1040" y="1499" type="qcurve" smooth="yes"/>
      <point x="1405.67164179" y="1499.0"/>
      <point x="1909.0" y="1050.65671642"/>
      <point x="1909" y="682" type="qcurve" smooth="yes"/>
      <point x="1909.0" y="390.208955224"/>
      <point x="1606.49253731" y="51.0"/>
      <point x="1405" y="51" type="qcurve" smooth="yes"/>
      <point x="1273.65671642" y="51.0"/>
      <point x="1135.1641791" y="185.268656716"/>
      <point x="1118" y="289" type="qcurve"/>
      <point x="1110" y="289" type="line"/>
      <point x="1044.32835821" y="178.552238806"/>
      <point x="868.268656716" y="51.0"/>
      <point x="772" y="51" type="qcurve" smooth="yes"/>
      <point x="651.104477612" y="51.0"/>
      <point x="518.0" y="228.552238806"/>
      <point x="518" y="389" type="qcurve" smooth="yes"/>
      <point x="518.0" y="615.119402985"/>
      <point x="718.940298507" y="1063.0"/>
      <point x="907" y="1063" type="qcurve" smooth="yes"/>
      <point x="1014.46268657" y="1063.0"/>
      <point x="1129.92537313" y="942.776119403"/>
      <point x="1165" y="848" type="qcurve"/>
      <point x="1174" y="848" type="line"/>
      <point x="1210" y="1063" type="line"/>
      <point x="1483" y="1020" type="line"/>
      <point x="1366" y="369" type="line" smooth="yes"/>
      <point x="1348.8358209" y="275.71641791"/>
      <point x="1411.65671642" y="156.0"/>
      <point x="1493" y="156" type="qcurve" smooth="yes"/>
      <point x="1619.86567164" y="156.0"/>
      <point x="1817.0" y="454.865671642"/>
      <point x="1817" y="678" type="qcurve" smooth="yes"/>
      <point x="1817.0" y="1019.04477612"/>
      <point x="1378.02985075" y="1421.0"/>
      <point x="1034" y="1421" type="qcurve" smooth="yes"/>
      <point x="676.537313433" y="1421.0"/>
      <point x="182.0" y="908.432835821"/>
      <point x="182" y="545" type="qcurve" smooth="yes"/>
      <point x="182.0" y="161.417910448"/>
      <point x="641.373134328" y="-315.0"/>
      <point x="1016" y="-315" type="qcurve" smooth="yes"/>
      <point x="1199.58208955" y="-315.0"/>
      <point x="1482.17910448" y="-242.626865672"/>
      <point x="1618" y="-168" type="qcurve"/>
      <point x="1657" y="-233" type="line"/>
      <point x="1514.46268657" y="-309.865671642"/>
      <point x="1210.50746269" y="-393.0"/>
      <point x="1012" y="-393" type="qcurve" smooth="yes"/>
      <point x="599.313432836" y="-393.0"/>
      <point x="90.0" y="122.850746269"/>
      <point x="90" y="543" type="qcurve" smooth="yes"/>
      <point x="90.0" y="945.985074627"/>
      <point x="651.940298507" y="1499.0"/>
    </contour>
    <contour>
      <point x="911" y="219" type="qcurve" smooth="yes"/>
      <point x="998.313432836" y="219.0"/>
      <point x="1137.0" y="513.104477612"/>
      <point x="1137" y="684" type="qcurve" smooth="yes"/>
      <point x="1137.0" y="763.850746269"/>
      <point x="1071.70149254" y="874.0"/>
      <point x="1012" y="874" type="qcurve" smooth="yes"/>
      <point x="923.194029851" y="874.0"/>
      <point x="797.0" y="586.552238806"/>
      <point x="797" y="397" type="qcurve" smooth="yes"/>
      <point x="797.0" y="314.910447761"/>
      <point x="855.029850746" y="219.0"/>
    </contour>
  </outline>
</glyph>
<glyph name="A" format="1">
  <advance width="1398.784"/>
  <unicode hex="0041"/>
  <outline>
    <contour>
      <point x="1145" y="1481" type="line"/>
      <point x="1229" y="0" type="line"/>
      <point x="905" y="0" type="line"/>
      <point x="897" y="334" type="line"/>
      <point x="403" y="334" type="line"/>
      <point x="231" y="0" type="line"/>
      <point x="-104" y="0" type="line"/>
      <point x="721" y="1481" type="line"/>
    </contour>
    <contour>
      <point x="506" y="545" type="line"/>
      <point x="901" y="545" type="line"/>
      <point x="883" y="1241" type="line"/>
      <point x="872" y="1241" type="line"/>
    </contour>
  </outline>
</glyph>
<glyph name="B" format="1">
  <advance width="1271.808"/>
  <unicode hex="0042"/>
  <outline>
    <contour>
      <point x="856" y="1475" type="line" smooth="yes"/>
      <point x="1083.6119403" y="1475.0"/>
      <point x="1311.0" y="1301.0"/>
      <point x="1311" y="1151" type="qcurve" smooth="yes"/>
      <point x="1311.0" y="1002.49253731"/>
      <point x="1106.79104478" y="813.552238806"/>
      <point x="965" y="774" type="qcurve"/>
      <point x="965" y="766" type="line"/>
      <point x="1065.74626866" y="727.940298507"/>
      <point x="1190.0" y="586.910447761"/>
      <point x="1190" y="469" type="qcurve" smooth="yes"/>
      <point x="1190.0" y="260.791044776"/>
      <point x="861.029850746" y="0.0"/>
      <point x="567" y="0" type="qcurve" smooth="yes"/>
      <point x="-16" y="0" type="line"/>
      <point x="350" y="1475" type="line"/>
    </contour>
    <contour>
      <point x="557" y="231" type="line" smooth="yes"/>
      <point x="711.47761194" y="231.0"/>
      <point x="891.0" y="364.850746269"/>
      <point x="891" y="485" type="qcurve" smooth="yes"/>
      <point x="891.0" y="569.328358209"/>
      <point x="771.865671642" y="670.0"/>
      <point x="645" y="670" type="qcurve" smooth="yes"/>
      <point x="465" y="670" type="line"/>
      <point x="354" y="231" type="line"/>
    </contour>
    <contour>
      <point x="707" y="879" type="line" smooth="yes"/>
      <point x="835.358208955" y="879.0"/>
      <point x="993.0" y="994.746268657"/>
      <point x="993" y="1094" type="qcurve" smooth="yes"/>
      <point x="993.0" y="1167.13432836"/>
      <point x="888.0" y="1243.0"/>
      <point x="788" y="1243" type="qcurve" smooth="yes"/>
      <point x="606" y="1243" type="line"/>
      <point x="516" y="879" type="line"/>
    </contour>
  </outline>
</glyph>
<glyph name="D" format="1">
  <advance width="1300.48"/>
  <unicode hex="0044"/>
  <outline>
    <contour>
      <point x="1307" y="983" type="qcurve" smooth="yes"/>
      <point x="1307" y="977" type="line" smooth="yes"/>
      <point x="1307.0" y="915.805970149"/>
      <point x="1292.41791045" y="796.134328358"/>
      <point x="1276" y="723" type="qcurve" smooth="yes"/>
      <point x="1190.17910448" y="352.850746269"/>
      <point x="790.880597015" y="0.0"/>
      <point x="467" y="0" type="qcurve" smooth="yes"/>
      <point x="-16" y="0" type="line"/>
      <point x="350" y="1475" type="line"/>
      <point x="760" y="1475" type="line" smooth="yes"/>
      <point x="1015.2238806" y="1475.0"/>
      <point x="1307.0" y="1232.25373134"/>
    </contour>
    <contour>
      <point x="934" y="715" type="qcurve" smooth="yes"/>
      <point x="948.925373134" y="773.208955224"/>
      <point x="965.0" y="899.52238806"/>
      <point x="965" y="954" type="qcurve" smooth="yes"/>
      <point x="965" y="965" type="line" smooth="yes"/>
      <point x="965.0" y="1090.37313433"/>
      <point x="832.164179104" y="1227.0"/>
      <point x="715" y="1227" type="qcurve" smooth="yes"/>
      <point x="608" y="1227" type="line"/>
      <point x="367" y="248" type="line"/>
      <point x="487" y="248" type="line" smooth="yes"/>
      <point x="647.447761194" y="248.0"/>
      <point x="869.820895522" y="470.223880597"/>
    </contour>
  </outline>
</glyph>
<glyph name="F" format="1">
  <advance width="1085.44"/>
  <unicode hex="0046"/>
  <outline>
    <contour>
      <point x="350" y="1475" type="line"/>
      <point x="1276" y="1475" type="line"/>
      <point x="1212" y="1221" type="line"/>
      <point x="614" y="1221" type="line"/>
      <point x="520" y="844" type="line"/>
      <point x="946" y="844" type="line"/>
      <point x="885" y="598" type="line"/>
      <point x="459" y="598" type="line"/>
      <point x="311" y="0" type="line"/>
      <point x="-16" y="0" type="line"/>
    </contour>
  </outline>
</glyph>
<glyph name="H" format="1">
  <advance width="1318.912"/>
  <unicode hex="0048"/>
  <outline>
    <contour>
      <point x="1104" y="1475" type="line"/>
      <point x="1432" y="1475" type="line"/>
      <point x="1065" y="0" type="line"/>
      <point x="737" y="0" type="line"/>
      <point x="891" y="621" type="line"/>
      <point x="465" y="621" type="line"/>
      <point x="311" y="0" type="line"/>
      <point x="-16" y="0" type="line"/>
      <point x="350" y="1475" type="line"/>
      <point x="678" y="1475" type="line"/>
      <point x="537" y="903" type="line"/>
      <point x="963" y="903" type="line"/>
    </contour>
  </outline>
</glyph>
<glyph name="I" format="1">
  <advance width="890.88"/>
  <unicode hex="0049"/>
  <outline>
    <contour>
      <point x="313" y="1475" type="line"/>
      <point x="1042" y="1475" type="line"/>
      <point x="1012" y="1350" type="line"/>
      <point x="811" y="1350" type="line"/>
      <point x="504" y="125" type="line"/>
      <point x="705" y="125" type="line"/>
      <point x="674" y="0" type="line"/>
      <point x="-55" y="0" type="line"/>
      <point x="-25" y="125" type="line"/>
      <point x="176" y="125" type="line"/>
      <point x="483" y="1350" type="line"/>
      <point x="283" y="1350" type="line"/>
    </contour>
  </outline>
</glyph>
<glyph name="J" format="1">
  <advance width="1097.728"/>
  <unicode hex="004A"/>
  <outline>
    <contour>
      <point x="893" y="1475" type="line"/>
      <point x="1221" y="1475" type="line"/>
      <point x="965" y="444" type="line" smooth="yes"/>
      <point x="906.791044776" y="208.925373134"/>
      <point x="638.119402985" y="-25.0"/>
      <point x="412" y="-25" type="qcurve" smooth="yes"/>
      <point x="220.955223881" y="-25.0"/>
      <point x="-8.0" y="147.059701493"/>
      <point x="-8" y="309" type="qcurve" smooth="yes"/>
      <point x="-8.0" y="341.089552239"/>
      <point x="-1.46268656716" y="403.940298507"/>
      <point x="6" y="442" type="qcurve"/>
      <point x="326" y="498" type="line"/>
      <point x="316.298507463" y="459.194029851"/>
      <point x="307.0" y="393.865671642"/>
      <point x="307" y="367" type="qcurve" smooth="yes"/>
      <point x="307.0" y="297.597014925"/>
      <point x="373.820895522" y="233.0"/>
      <point x="438" y="233" type="qcurve" smooth="yes"/>
      <point x="511.880597015" y="233.0"/>
      <point x="613.388059701" y="343.567164179"/>
      <point x="641" y="457" type="qcurve" smooth="yes"/>
    </contour>
  </outline>
</glyph>
<glyph name="K" format="1">
  <advance width="1323.008"/>
  <unicode hex="004B"/>
  <outline>
    <contour>
      <point x="1159" y="1475" type="line"/>
      <point x="1526" y="1475" type="line"/>
      <point x="883" y="795" type="line"/>
      <point x="1192" y="0" type="line"/>
      <point x="844" y="0" type="line"/>
      <point x="547" y="797" type="line"/>
      <point x="547" y="807" type="line"/>
    </contour>
    <contour>
      <point x="350" y="1475" type="line"/>
      <point x="678" y="1475" type="line"/>
      <point x="311" y="0" type="line"/>
      <point x="-16" y="0" type="line"/>
    </contour>
  </outline>
</glyph>
<glyph name="L" format="1">
  <advance width="1073.152"/>
  <unicode hex="004C"/>
  <outline>
    <contour>
      <point x="379" y="272" type="line"/>
      <point x="969" y="272" type="line"/>
      <point x="901" y="0" type="line"/>
      <point x="-16" y="0" type="line"/>
      <point x="350" y="1475" type="line"/>
      <point x="678" y="1475" type="line"/>
    </contour>
  </outline>
</glyph>
<glyph name="M" format="1">
  <advance width="1806.336"/>
  <unicode hex="004D"/>
  <outline>
    <contour>
      <point x="1423" y="1475" type="line"/>
      <point x="1919" y="1475" type="line"/>
      <point x="1550" y="0" type="line"/>
      <point x="1249" y="0" type="line"/>
      <point x="1528" y="1116" type="line"/>
      <point x="1513" y="1116" type="line"/>
      <point x="922" y="0" type="line"/>
      <point x="600" y="0" type="line"/>
      <point x="567" y="1116" type="line"/>
      <point x="553" y="1116" type="line"/>
      <point x="274" y="0" type="line"/>
      <point x="-16" y="0" type="line"/>
      <point x="350" y="1475" type="line"/>
      <point x="834" y="1475" type="line"/>
      <point x="864" y="432" type="line"/>
      <point x="874" y="432" type="line"/>
    </contour>
  </outline>
</glyph>
<glyph name="N" format="1">
  <advance width="1333.248"/>
  <unicode hex="004E"/>
  <outline>
    <contour>
      <point x="1143" y="1475" type="line"/>
      <point x="1444" y="1475" type="line"/>
      <point x="1077" y="0" type="line"/>
      <point x="780" y="0" type="line"/>
      <point x="537" y="967" type="line"/>
      <point x="526" y="967" type="line"/>
      <point x="285" y="0" type="line"/>
      <point x="-16" y="0" type="line"/>
      <point x="350" y="1475" type="line"/>
      <point x="678" y="1475" type="line"/>
      <point x="905" y="561" type="line"/>
      <point x="915" y="561" type="line"/>
    </contour>
  </outline>
</glyph>
<glyph name="O" format="1">
  <advance width="1314.816"/>
  <unicode hex="004F"/>
  <outline>
    <contour>
      <point x="1315" y="1010" type="qcurve" smooth="yes"/>
      <point x="1315" y="1001" type="line" smooth="yes"/>
      <point x="1315.0" y="940.552238806"/>
      <point x="1294.92537313" y="773.656716418"/>
      <point x="1280" y="705" type="qcurve" smooth="yes"/>
      <point x="1200.89552239" y="352.76119403"/>
      <point x="852.850746269" y="-25.0"/>
      <point x="573" y="-25" type="qcurve" smooth="yes"/>
      <point x="355.089552239" y="-25.0"/>
      <point x="96.0" y="234.402985075"/>
      <point x="96" y="465" type="qcurve" smooth="yes"/>
      <point x="96" y="473" type="line" smooth="yes"/>
      <point x="96.0" y="534.194029851"/>
      <point x="116.074626866" y="701.343283582"/>
      <point x="131" y="770" type="qcurve" smooth="yes"/>
      <point x="209.358208955" y="1121.49253731"/>
      <point x="558.149253731" y="1499.0"/>
      <point x="838" y="1499" type="qcurve" smooth="yes"/>
      <point x="1055.91044776" y="1499.0"/>
      <point x="1315.0" y="1240.59701493"/>
    </contour>
    <contour>
      <point x="930" y="668" type="qcurve" smooth="yes"/>
      <point x="959.104477612" y="777.701492537"/>
      <point x="987.0" y="950.805970149"/>
      <point x="987" y="1012" type="qcurve" smooth="yes"/>
      <point x="987" y="1018" type="line" smooth="yes"/>
      <point x="987.0" y="1118.74626866"/>
      <point x="899.805970149" y="1251.0"/>
      <point x="811" y="1251" type="qcurve" smooth="yes"/>
      <point x="702.791044776" y="1251.0"/>
      <point x="538.701492537" y="1025.65671642"/>
      <point x="479" y="807" type="qcurve" smooth="yes"/>
      <point x="449.895522388" y="696.552238806"/>
      <point x="424.0" y="524.194029851"/>
      <point x="424" y="463" type="qcurve" smooth="yes"/>
      <point x="424" y="457" type="line" smooth="yes"/>
      <point x="424.0" y="356.253731343"/>
      <point x="511.194029851" y="223.0"/>
      <point x="600" y="223" type="qcurve" smooth="yes"/>
      <point x="706.71641791" y="223.0"/>
      <point x="870.298507463" y="449.343283582"/>
    </contour>
  </outline>
</glyph>
<glyph name="Q" format="1">
  <advance width="1314.816"/>
  <unicode hex="0051"/>
  <outline>
    <contour>
      <point x="1315" y="1010" type="qcurve" smooth="yes"/>
      <point x="1315" y="1001" type="line" smooth="yes"/>
      <point x="1315.0" y="940.552238806"/>
      <point x="1294.92537313" y="773.656716418"/>
      <point x="1280" y="705" type="qcurve" smooth="yes"/>
      <point x="1230.74626866" y="490.820895522"/>
      <point x="1065.40298507" y="180.805970149"/>
      <point x="946" y="92" type="qcurve"/>
      <point x="973" y="37" type="line" smooth="yes"/>
      <point x="996.134328358" y="-10.7611940299"/>
      <point x="1066.50746269" y="-51.0"/>
      <point x="1118" y="-51" type="qcurve" smooth="yes"/>
      <point x="1138.14925373" y="-51.0"/>
      <point x="1172.35820896" y="-47.4776119403"/>
      <point x="1194" y="-43" type="qcurve"/>
      <point x="1143" y="-238" type="line"/>
      <point x="1124.34328358" y="-240.985074627"/>
      <point x="1093.65671642" y="-244.0"/>
      <point x="1075" y="-244" type="qcurve" smooth="yes"/>
      <point x="966.791044776" y="-244.0"/>
      <point x="834.044776119" y="-175.76119403"/>
      <point x="793" y="-78" type="qcurve" smooth="yes"/>
      <point x="760" y="0" type="line"/>
      <point x="716.71641791" y="-11.9402985075"/>
      <point x="623.746268657" y="-25.0"/>
      <point x="573" y="-25" type="qcurve" smooth="yes"/>
      <point x="355.089552239" y="-25.0"/>
      <point x="96.0" y="234.402985075"/>
      <point x="96" y="465" type="qcurve" smooth="yes"/>
      <point x="96" y="473" type="line" smooth="yes"/>
      <point x="96.0" y="534.194029851"/>
      <point x="116.074626866" y="701.343283582"/>
      <point x="131" y="770" type="qcurve" smooth="yes"/>
      <point x="209.358208955" y="1121.49253731"/>
      <point x="558.149253731" y="1499.0"/>
      <point x="838" y="1499" type="qcurve" smooth="yes"/>
      <point x="1055.91044776" y="1499.0"/>
      <point x="1315.0" y="1240.59701493"/>
    </contour>
    <contour>
      <point x="926" y="655" type="qcurve" smooth="yes"/>
      <point x="956.597014925" y="763.955223881"/>
      <point x="987.0" y="950.805970149"/>
      <point x="987" y="1012" type="qcurve" smooth="yes"/>
      <point x="987" y="1018" type="line" smooth="yes"/>
      <point x="987.0" y="1118.74626866"/>
      <point x="899.805970149" y="1251.0"/>
      <point x="811" y="1251" type="qcurve" smooth="yes"/>
      <point x="702.791044776" y="1251.0"/>
      <point x="534.701492537" y="1010.91044776"/>
      <point x="475" y="793" type="qcurve" smooth="yes"/>
      <point x="444.402985075" y="684.044776119"/>
      <point x="416.0" y="497.194029851"/>
      <point x="416" y="436" type="qcurve" smooth="yes"/>
      <point x="416" y="428" type="line" smooth="yes"/>
      <point x="416.0" y="328.746268657"/>
      <point x="503.194029851" y="197.0"/>
      <point x="592" y="197" type="qcurve" smooth="yes"/>
      <point x="619.611940299" y="197.0"/>
      <point x="669.611940299" y="208.552238806"/>
      <point x="692" y="219" type="qcurve"/>
      <point x="596" y="455" type="line"/>
      <point x="723" y="516" type="line"/>
      <point x="805" y="334" type="line"/>
      <point x="838.582089552" y="390.71641791"/>
      <point x="896.895522388" y="551.268656716"/>
    </contour>
  </outline>
</glyph>
<glyph name="R" format="1">
  <advance width="1263.616"/>
  <unicode hex="0052"/>
  <outline>
    <contour>
      <point x="811" y="1475" type="line" smooth="yes"/>
      <point x="1046.07462687" y="1475.0"/>
      <point x="1290.0" y="1283.58208955"/>
      <point x="1290" y="1100" type="qcurve" smooth="yes"/>
      <point x="1290.0" y="920.895522388"/>
      <point x="1067.86567164" y="684.52238806"/>
      <point x="891" y="639" type="qcurve"/>
      <point x="1112" y="0" type="line"/>
      <point x="768" y="0" type="line"/>
      <point x="578" y="594" type="line"/>
      <point x="459" y="594" type="line"/>
      <point x="311" y="0" type="line"/>
      <point x="-16" y="0" type="line"/>
      <point x="350" y="1475" type="line"/>
    </contour>
    <contour>
      <point x="664" y="811" type="line" smooth="yes"/>
      <point x="801.313432836" y="811.0"/>
      <point x="967.0" y="946.611940299"/>
      <point x="967" y="1069" type="qcurve" smooth="yes"/>
      <point x="967.0" y="1159.29850746"/>
      <point x="854.432835821" y="1243.0"/>
      <point x="741" y="1243" type="qcurve" smooth="yes"/>
      <point x="608" y="1243" type="line"/>
      <point x="500" y="811" type="line"/>
    </contour>
  </outline>
</glyph>
<glyph name="S" format="1">
  <advance width="1202.176"/>
  <unicode hex="0053"/>
  <outline>
    <contour>
      <point x="752" y="1495" type="qcurve" smooth="yes"/>
      <point x="962.447761194" y="1495.0"/>
      <point x="1214.32835821" y="1341.62686567"/>
      <point x="1280" y="1217" type="qcurve"/>
      <point x="1032" y="1051" type="line"/>
      <point x="980.507462687" y="1144.28358209"/>
      <point x="829.746268657" y="1253.0"/>
      <point x="729" y="1253" type="qcurve" smooth="yes"/>
      <point x="629.746268657" y="1253.0"/>
      <point x="530.0" y="1151.92537313"/>
      <point x="530" y="1087" type="qcurve" smooth="yes"/>
      <point x="530.0" y="1021.32835821"/>
      <point x="616.507462687" y="928.686567164"/>
      <point x="768" y="866" type="qcurve" smooth="yes"/>
      <point x="954.567164179" y="788.388059701"/>
      <point x="1118.0" y="593.776119403"/>
      <point x="1118" y="449" type="qcurve" smooth="yes"/>
      <point x="1118.0" y="231.835820896"/>
      <point x="804.313432836" y="-20.0"/>
      <point x="567" y="-20" type="qcurve" smooth="yes"/>
      <point x="342.373134328" y="-20.0"/>
      <point x="42.9104477612" y="146.462686567"/>
      <point x="-25" y="289" type="qcurve"/>
      <point x="215" y="463" type="line"/>
      <point x="264.253731343" y="349.567164179"/>
      <point x="456.656716418" y="221.0"/>
      <point x="588" y="221" type="qcurve" smooth="yes"/>
      <point x="694.71641791" y="221.0"/>
      <point x="805.0" y="328.373134328"/>
      <point x="805" y="403" type="qcurve" smooth="yes"/>
      <point x="805.0" y="465.686567164"/>
      <point x="725.0" y="563.805970149"/>
      <point x="575" y="625" type="qcurve" smooth="yes"/>
      <point x="375.0" y="705.597014925"/>
      <point x="215.0" y="897.223880597"/>
      <point x="215" y="1042" type="qcurve" smooth="yes"/>
      <point x="215.0" y="1241.25373134"/>
      <point x="519.164179104" y="1495.0"/>
    </contour>
  </outline>
</glyph>
<glyph name="U" format="1">
  <advance width="1288.192"/>
  <unicode hex="0055"/>
  <outline>
    <contour>
      <point x="1102" y="1475" type="line"/>
      <point x="1413" y="1475" type="line"/>
      <point x="1165" y="483" type="line" smooth="yes"/>
      <point x="1097.8358209" y="215.835820896"/>
      <point x="791.432835821" y="-25.0"/>
      <point x="578" y="-25" type="qcurve" smooth="yes"/>
      <point x="351.134328358" y="-25.0"/>
      <point x="88.0" y="171.23880597"/>
      <point x="88" y="369" type="qcurve" smooth="yes"/>
      <point x="88.0" y="421.985074627"/>
      <point x="104.313432836" y="537.253731343"/>
      <point x="117" y="588" type="qcurve" smooth="yes"/>
      <point x="338" y="1475" type="line"/>
      <point x="666" y="1475" type="line"/>
      <point x="440" y="573" type="line" smooth="yes"/>
      <point x="429.552238806" y="530.462686567"/>
      <point x="418.0" y="444.597014925"/>
      <point x="418" y="414" type="qcurve" smooth="yes"/>
      <point x="418.0" y="328.179104478"/>
      <point x="511.194029851" y="233.0"/>
      <point x="600" y="233" type="qcurve" smooth="yes"/>
      <point x="688.805970149" y="233.0"/>
      <point x="826.925373134" y="367.462686567"/>
      <point x="862" y="510" type="qcurve" smooth="yes"/>
    </contour>
  </outline>
</glyph>
<glyph name="V" format="1">
  <advance width="1345.536"/>
  <unicode hex="0056"/>
  <outline>
    <contour>
      <point x="1204" y="1475" type="line"/>
      <point x="1546" y="1475" type="line"/>
      <point x="715" y="-10" type="line"/>
      <point x="352" y="-10" type="line"/>
      <point x="264" y="1475" type="line"/>
      <point x="594" y="1475" type="line"/>
      <point x="612" y="342" type="line"/>
      <point x="623" y="342" type="line"/>
    </contour>
  </outline>
</glyph>
<glyph name="Z" format="1">
  <advance width="1155.072"/>
  <unicode hex="005A"/>
  <outline>
    <contour>
      <point x="330" y="1475" type="line"/>
      <point x="1323" y="1475" type="line"/>
      <point x="1268" y="1251" type="line"/>
      <point x="362" y="254" type="line"/>
      <point x="1020" y="254" type="line"/>
      <point x="954" y="0" type="line"/>
      <point x="-74" y="0" type="line"/>
      <point x="-18" y="223" type="line"/>
      <point x="887" y="1221" type="line"/>
      <point x="264" y="1221" type="line"/>
    </contour>
  </outline>
</glyph>
<glyph name="bracketleft" format="1">
  <advance width="796.672"/>
  <unicode hex="005B"/>
  <outline>
    <contour>
      <point x="356" y="1495" type="line"/>
      <point x="981" y="1475" type="line"/>
      <point x="950" y="1350" type="line"/>
      <point x="612" y="1362" type="line"/>
      <point x="262" y="-51" type="line"/>
      <point x="604" y="-39" type="line"/>
      <point x="571" y="-164" type="line"/>
      <point x="-59" y="-184" type="line"/>
    </contour>
  </outline>
</glyph>
<glyph name="backslash" format="1">
  <advance width="897.024"/>
  <unicode hex="005C"/>
  <outline>
    <contour>
      <point x="524" y="1505" type="line"/>
      <point x="754" y="-195" type="line"/>
      <point x="487" y="-195" type="line"/>
      <point x="260" y="1505" type="line"/>
    </contour>
  </outline>
</glyph>
<glyph name="bracketright" format="1">
  <advance width="796.672"/>
  <unicode hex="005D"/>
  <outline>
    <contour>
      <point x="279" y="1475" type="line"/>
      <point x="911" y="1495" type="line"/>
      <point x="494" y="-184" type="line"/>
      <point x="-131" y="-164" type="line"/>
      <point x="-100" y="-39" type="line"/>
      <point x="238" y="-51" type="line"/>
      <point x="590" y="1362" type="line"/>
      <point x="248" y="1350" type="line"/>
    </contour>
  </outline>
</glyph>
<glyph name="b" format="1">
  <advance width="1116.16"/>
  <unicode hex="0062"/>
  <outline>
    <contour>
      <point x="1079" y="805" type="qcurve" smooth="yes"/>
      <point x="1079" y="801" type="line" smooth="yes"/>
      <point x="1079.0" y="492.044776119"/>
      <point x="785.582089552" y="-16.0"/>
      <point x="602" y="-16" type="qcurve" smooth="yes"/>
      <point x="508.71641791" y="-16.0"/>
      <point x="396.686567164" y="79.7910447761"/>
      <point x="334" y="188" type="qcurve"/>
      <point x="324" y="188" type="line"/>
      <point x="272" y="-16" type="line"/>
      <point x="-25" y="31" type="line"/>
      <point x="342" y="1501" type="line"/>
      <point x="662" y="1550" type="line"/>
      <point x="492" y="864" type="line"/>
      <point x="500" y="864" type="line"/>
      <point x="608.208955224" y="993.850746269"/>
      <point x="769.164179104" y="1106.0"/>
      <point x="852" y="1106" type="qcurve" smooth="yes"/>
      <point x="963.194029851" y="1106.0"/>
      <point x="1079.0" y="940.820895522"/>
    </contour>
    <contour>
      <point x="496" y="170" type="qcurve" smooth="yes"/>
      <point x="601.223880597" y="170.0"/>
      <point x="770.0" y="563.597014925"/>
      <point x="770" y="733" type="qcurve" smooth="yes"/>
      <point x="770.0" y="812.850746269"/>
      <point x="726.47761194" y="897.0"/>
      <point x="672" y="897" type="qcurve" smooth="yes"/>
      <point x="569.76119403" y="897.0"/>
      <point x="375.0" y="485.373134328"/>
      <point x="375" y="360" type="qcurve" smooth="yes"/>
      <point x="375.0" y="274.925373134"/>
      <point x="442.268656716" y="170.0"/>
    </contour>
  </outline>
</glyph>
<glyph name="e" format="1">
  <advance width="1011.712"/>
  <unicode hex="0065"/>
  <outline>
    <contour>
      <point x="618" y="1110" type="qcurve" smooth="yes"/>
      <point x="807.552238806" y="1110.0"/>
      <point x="979.0" y="908.955223881"/>
      <point x="979" y="750" type="qcurve" smooth="yes"/>
      <point x="979.0" y="688.805970149"/>
      <point x="955.641791045" y="551.358208955"/>
      <point x="934" y="473" type="qcurve"/>
      <point x="330" y="473" type="line"/>
      <point x="327.014925373" y="451.358208955"/>
      <point x="324.0" y="409.149253731"/>
      <point x="324" y="389" type="qcurve" smooth="yes"/>
      <point x="324" y="385" type="line" smooth="yes"/>
      <point x="324.0" y="287.23880597"/>
      <point x="423.701492537" y="193.0"/>
      <point x="514" y="193" type="qcurve" smooth="yes"/>
      <point x="576.686567164" y="193.0"/>
      <point x="732.194029851" y="236.447761194"/>
      <point x="821" y="276" type="qcurve"/>
      <point x="852" y="78" type="line"/>
      <point x="746.776119403" y="31.7313432836"/>
      <point x="567.656716418" y="-16.0"/>
      <point x="449" y="-16" type="qcurve" smooth="yes"/>
      <point x="245.268656716" y="-16.0"/>
      <point x="41.0" y="180.432835821"/>
      <point x="41" y="367" type="qcurve" smooth="yes"/>
      <point x="41" y="371" type="line" smooth="yes"/>
      <point x="41.0" y="416.52238806"/>
      <point x="57.8208955224" y="536.776119403"/>
      <point x="72" y="592" type="qcurve" smooth="yes"/>
      <point x="134.686567164" y="836.776119403"/>
      <point x="416.507462687" y="1110.0"/>
    </contour>
    <contour>
      <point x="680" y="598" type="line"/>
      <point x="691.940298507" y="648.746268657"/>
      <point x="707.0" y="737.402985075"/>
      <point x="707" y="768" type="qcurve" smooth="yes"/>
      <point x="707.0" y="841.134328358"/>
      <point x="659.194029851" y="932.0"/>
      <point x="598" y="932" type="qcurve" smooth="yes"/>
      <point x="523.373134328" y="932.0"/>
      <point x="390.567164179" y="738.298507463"/>
      <point x="354" y="598" type="qcurve"/>
    </contour>
  </outline>
</glyph>
<glyph name="f" format="1">
  <advance width="788.48"/>
  <unicode hex="0066"/>
  <outline>
    <contour>
      <point x="813" y="1554" type="qcurve" smooth="yes"/>
      <point x="897.328358209" y="1554.0"/>
      <point x="1014.28358209" y="1534.41791045"/>
      <point x="1071" y="1518" type="qcurve"/>
      <point x="1020" y="1311" type="line"/>
      <point x="984.925373134" y="1325.92537313"/>
      <point x="909.731343284" y="1346.0"/>
      <point x="856" y="1346" type="qcurve" smooth="yes"/>
      <point x="788.835820896" y="1346.0"/>
      <point x="702.149253731" y="1279.34328358"/>
      <point x="682" y="1198" type="qcurve" smooth="yes"/>
      <point x="653" y="1083" type="line"/>
      <point x="911" y="1083" type="line"/>
      <point x="860" y="877" type="line"/>
      <point x="604" y="877" type="line"/>
      <point x="385" y="0" type="line"/>
      <point x="82" y="0" type="line"/>
      <point x="301" y="877" type="line"/>
      <point x="106" y="877" type="line"/>
      <point x="158" y="1083" type="line"/>
      <point x="352" y="1083" type="line"/>
      <point x="389" y="1233" type="line" smooth="yes"/>
      <point x="431.537313433" y="1406.88059701"/>
      <point x="630.910447761" y="1554.0"/>
    </contour>
  </outline>
</glyph>
<glyph name="i" format="1">
  <advance width="536.576"/>
  <unicode hex="0069"/>
  <outline>
    <contour>
      <point x="250" y="1090" type="line"/>
      <point x="559" y="1090" type="line"/>
      <point x="287" y="0" type="line"/>
      <point x="-20" y="0" type="line"/>
    </contour>
    <contour>
      <point x="338" y="1489" type="line"/>
      <point x="672" y="1489" type="line"/>
      <point x="610" y="1249" type="line"/>
      <point x="279" y="1249" type="line"/>
    </contour>
  </outline>
</glyph>
<glyph name="j" format="1">
  <advance width="536.576"/>
  <unicode hex="006A"/>
  <outline>
    <contour>
      <point x="250" y="1090" type="line"/>
      <point x="559" y="1090" type="line"/>
      <point x="266" y="-80" type="line" smooth="yes"/>
      <point x="221.970149254" y="-256.865671642"/>
      <point x="24.0149253731" y="-389.0"/>
      <point x="-123" y="-389" type="qcurve" smooth="yes"/>
      <point x="-194.641791045" y="-389.0"/>
      <point x="-307.970149254" y="-369.671641791"/>
      <point x="-352" y="-354" type="qcurve"/>
      <point x="-307" y="-170" type="line"/>
      <point x="-277.895522388" y="-181.940298507"/>
      <point x="-221.358208955" y="-195.0"/>
      <point x="-193" y="-195" type="qcurve" smooth="yes"/>
      <point x="-131.805970149" y="-195.0"/>
      <point x="-52.9104477612" y="-129.865671642"/>
      <point x="-35" y="-53" type="qcurve" smooth="yes"/>
    </contour>
    <contour>
      <point x="338" y="1489" type="line"/>
      <point x="672" y="1489" type="line"/>
      <point x="610" y="1249" type="line"/>
      <point x="279" y="1249" type="line"/>
    </contour>
  </outline>
</glyph>
<glyph name="o" format="1">
  <advance width="1071.104"/>
  <unicode hex="006F"/>
  <outline>
    <contour>
      <point x="1030" y="723" type="qcurve" smooth="yes"/>
      <point x="1030" y="719" type="line" smooth="yes"/>
      <point x="1030.0" y="672.731343284"/>
      <point x="1013.17910448" y="556.47761194"/>
      <point x="999" y="502" type="qcurve" smooth="yes"/>
      <point x="940.044776119" y="261.701492537"/>
      <point x="660.626865672" y="-20.0"/>
      <point x="436" y="-20" type="qcurve" smooth="yes"/>
      <point x="250.925373134" y="-20.0"/>
      <point x="41.0" y="177.447761194"/>
      <point x="41" y="367" type="qcurve" smooth="yes"/>
      <point x="41" y="371" type="line" smooth="yes"/>
      <point x="41.0" y="416.52238806"/>
      <point x="57.8208955224" y="532.776119403"/>
      <point x="72" y="588" type="qcurve" smooth="yes"/>
      <point x="133.194029851" y="827.552238806"/>
      <point x="411.865671642" y="1110.0"/>
      <point x="635" y="1110" type="qcurve" smooth="yes"/>
      <point x="820.074626866" y="1110.0"/>
      <point x="1030.0" y="912.552238806"/>
    </contour>
    <contour>
      <point x="694" y="526" type="qcurve" smooth="yes"/>
      <point x="714.149253731" y="605.850746269"/>
      <point x="733.0" y="722.955223881"/>
      <point x="733" y="764" type="qcurve" smooth="yes"/>
      <point x="733" y="768" type="line" smooth="yes"/>
      <point x="733.0" y="852.328358209"/>
      <point x="672.71641791" y="926.0"/>
      <point x="616" y="926" type="qcurve" smooth="yes"/>
      <point x="535.402985075" y="926.0"/>
      <point x="421.537313433" y="729.925373134"/>
      <point x="379" y="565" type="qcurve" smooth="yes"/>
      <point x="358.850746269" y="485.895522388"/>
      <point x="340.0" y="367.044776119"/>
      <point x="340" y="326" type="qcurve" smooth="yes"/>
      <point x="340" y="322" type="line" smooth="yes"/>
      <point x="340.0" y="237.671641791"/>
      <point x="399.776119403" y="164.0"/>
      <point x="455" y="164" type="qcurve" smooth="yes"/>
      <point x="537.089552239" y="164.0"/>
      <point x="651.462686567" y="359.582089552"/>
    </contour>
  </outline>
</glyph>
<glyph name="r" format="1">
  <advance width="847.872"/>
  <unicode hex="0072"/>
  <outline>
    <contour>
      <point x="459" y="694" type="line"/>
      <point x="619.447761194" y="915.641791045"/>
      <point x="848.074626866" y="1103.52238806"/>
      <point x="963" y="1108" type="qcurve"/>
      <point x="885" y="797" type="line"/>
      <point x="762.611940299" y="785.805970149"/>
      <point x="539.402985075" y="674.776119403"/>
      <point x="420" y="580" type="qcurve"/>
      <point x="276" y="0" type="line"/>
      <point x="-33" y="0" type="line"/>
      <point x="231" y="1059" type="line"/>
      <point x="551" y="1108" type="line"/>
      <point x="449" y="694" type="line"/>
    </contour>
  </outline>
</glyph>
<glyph name="s" format="1">
  <advance width="917.504"/>
  <unicode hex="0073"/>
  <outline>
    <contour>
      <point x="547" y="1110" type="qcurve" smooth="yes"/>
      <point x="685.805970149" y="1110.0"/>
      <point x="874.328358209" y="1012.08955224"/>
      <point x="940" y="930" type="qcurve"/>
      <point x="756" y="788" type="line"/>
      <point x="700.776119403" y="854.417910448"/>
      <point x="587.701492537" y="924.0"/>
      <point x="528" y="924" type="qcurve" smooth="yes"/>
      <point x="466.805970149" y="924.0"/>
      <point x="397.0" y="856.52238806"/>
      <point x="397" y="811" type="qcurve" smooth="yes"/>
      <point x="397.0" y="768.462686567"/>
      <point x="459.268656716" y="705.044776119"/>
      <point x="563" y="664" type="qcurve" smooth="yes"/>
      <point x="710.014925373" y="604.298507463"/>
      <point x="831.0" y="455.970149254"/>
      <point x="831" y="350" type="qcurve" smooth="yes"/>
      <point x="831.0" y="183.582089552"/>
      <point x="588.52238806" y="-20.0"/>
      <point x="393" y="-20" type="qcurve" smooth="yes"/>
      <point x="237.029850746" y="-20.0"/>
      <point x="17.1492537313" y="86.1791044776"/>
      <point x="-53" y="172" type="qcurve"/>
      <point x="121" y="326" type="line"/>
      <point x="179.208955224" y="250.626865672"/>
      <point x="333.134328358" y="168.0"/>
      <point x="410" y="168" type="qcurve" smooth="yes"/>
      <point x="481.641791045" y="168.0"/>
      <point x="561.0" y="235.268656716"/>
      <point x="561" y="289" type="qcurve" smooth="yes"/>
      <point x="561.0" y="331.537313433"/>
      <point x="492.194029851" y="390.985074627"/>
      <point x="381" y="438" type="qcurve" smooth="yes"/>
      <point x="252.641791045" y="491.731343284"/>
      <point x="125.0" y="645.582089552"/>
      <point x="125" y="762" type="qcurve" smooth="yes"/>
      <point x="125.0" y="903.791044776"/>
      <point x="355.955223881" y="1110.0"/>
    </contour>
  </outline>
</glyph>
<glyph name="t" format="1">
  <advance width="854.016"/>
  <unicode hex="0074"/>
  <outline>
    <contour>
      <point x="645" y="1083" type="line"/>
      <point x="915" y="1083" type="line"/>
      <point x="864" y="877" type="line"/>
      <point x="594" y="877" type="line"/>
      <point x="469" y="373" type="line" smooth="yes"/>
      <point x="464.52238806" y="355.835820896"/>
      <point x="457.0" y="316.164179104"/>
      <point x="457" y="299" type="qcurve" smooth="yes"/>
      <point x="457.0" y="257.955223881"/>
      <point x="511.47761194" y="217.0"/>
      <point x="557" y="217" type="qcurve" smooth="yes"/>
      <point x="598.044776119" y="217.0"/>
      <point x="684.328358209" y="238.388059701"/>
      <point x="750" y="266" type="qcurve"/>
      <point x="692" y="35" type="line"/>
      <point x="611.402985075" y="4.40298507463"/>
      <point x="475.835820896" y="-20.0"/>
      <point x="393" y="-20" type="qcurve" smooth="yes"/>
      <point x="266.134328358" y="-20.0"/>
      <point x="135.0" y="92.5223880597"/>
      <point x="135" y="197" type="qcurve" smooth="yes"/>
      <point x="135.0" y="219.388059701"/>
      <point x="141.791044776" y="285.895522388"/>
      <point x="150" y="315" type="qcurve" smooth="yes"/>
      <point x="291" y="877" type="line"/>
      <point x="104" y="877" type="line"/>
      <point x="156" y="1083" type="line"/>
      <point x="342" y="1083" type="line"/>
      <point x="432" y="1446" type="line"/>
      <point x="748" y="1493" type="line"/>
    </contour>
  </outline>
</glyph>
<glyph name="u" format="1">
  <advance width="1099.776"/>
  <unicode hex="0075"/>
  <outline>
    <contour>
      <point x="823" y="1090" type="line"/>
      <point x="1133" y="1090" type="line"/>
      <point x="868" y="31" type="line"/>
      <point x="549" y="-16" type="line"/>
      <point x="614" y="246" type="line"/>
      <point x="604" y="246" type="line"/>
      <point x="491.313432836" y="113.164179104"/>
      <point x="313.776119403" y="-12.0"/>
      <point x="219" y="-12" type="qcurve" smooth="yes"/>
      <point x="119.746268657" y="-12.0"/>
      <point x="18.0" y="93.223880597"/>
      <point x="18" y="188" type="qcurve" smooth="yes"/>
      <point x="18.0" y="214.119402985"/>
      <point x="26.0447761194" y="279.925373134"/>
      <point x="35" y="315" type="qcurve" smooth="yes"/>
      <point x="227" y="1090" type="line"/>
      <point x="537" y="1090" type="line"/>
      <point x="360" y="387" type="line" smooth="yes"/>
      <point x="355.52238806" y="365.358208955"/>
      <point x="350.0" y="321.656716418"/>
      <point x="350" y="303" type="qcurve" smooth="yes"/>
      <point x="350.0" y="263.447761194"/>
      <point x="394.47761194" y="217.0"/>
      <point x="440" y="217" type="qcurve" smooth="yes"/>
      <point x="480.298507463" y="217.0"/>
      <point x="578.313432836" y="281.850746269"/>
      <point x="641" y="352" type="qcurve"/>
    </contour>
  </outline>
</glyph>
<glyph name="v" format="1">
  <advance width="1085.44"/>
  <unicode hex="0076"/>
  <outline>
    <contour>
      <point x="883" y="1090" type="line"/>
      <point x="1194" y="1090" type="line"/>
      <point x="573" y="-10" type="line"/>
      <point x="236" y="-10" type="line"/>
      <point x="162" y="1090" type="line"/>
      <point x="469" y="1090" type="line"/>
      <point x="481" y="305" type="line"/>
    </contour>
  </outline>
</glyph>
<glyph name="w" format="1">
  <advance width="1675.264"/>
  <unicode hex="0077"/>
  <outline>
    <contour>
      <point x="1468" y="1090" type="line"/>
      <point x="1780" y="1090" type="line"/>
      <point x="1200" y="-8" type="line"/>
      <point x="881" y="-8" type="line"/>
      <point x="885" y="721" type="line"/>
      <point x="522" y="-8" type="line"/>
      <point x="199" y="-8" type="line"/>
      <point x="168" y="1090" type="line"/>
      <point x="475" y="1090" type="line"/>
      <point x="446" y="328" type="line"/>
      <point x="821" y="1090" type="line"/>
      <point x="1122" y="1090" type="line"/>
      <point x="1114" y="328" type="line"/>
    </contour>
  </outline>
</glyph>
<glyph name="x" format="1">
  <advance width="1083.392"/>
  <unicode hex="0078"/>
  <outline>
    <contour>
      <point x="860" y="1090" type="line"/>
      <point x="1176" y="1090" type="line"/>
      <point x="698" y="557" type="line"/>
      <point x="915" y="0" type="line"/>
      <point x="600" y="0" type="line"/>
      <point x="485" y="332" type="line"/>
      <point x="211" y="0" type="line"/>
      <point x="-106" y="0" type="line"/>
      <point x="389" y="551" type="line"/>
      <point x="176" y="1090" type="line"/>
      <point x="494" y="1090" type="line"/>
      <point x="598" y="772" type="line"/>
    </contour>
  </outline>
</glyph>
<glyph name="y" format="1">
  <advance width="1085.44"/>
  <unicode hex="0079"/>
  <outline>
    <contour>
      <point x="883" y="1090" type="line"/>
      <point x="1194" y="1090" type="line"/>
      <point x="500" y="-135" type="line" smooth="yes"/>
      <point x="414.179104478" y="-285.0"/>
      <point x="230.328358209" y="-393.0"/>
      <point x="96" y="-393" type="qcurve" smooth="yes"/>
      <point x="7.19402985075" y="-393.0"/>
      <point x="-119.28358209" y="-364.626865672"/>
      <point x="-176" y="-340" type="qcurve"/>
      <point x="-127" y="-139" type="line"/>
      <point x="-66" y="-139" type="line"/>
      <point x="-45.8507462687" y="-182.28358209"/>
      <point x="14.2686567164" y="-231.0"/>
      <point x="68" y="-231" type="qcurve" smooth="yes"/>
      <point x="107.552238806" y="-231.0"/>
      <point x="180.402985075" y="-191.746268657"/>
      <point x="211" y="-141" type="qcurve" smooth="yes"/>
      <point x="256" y="-68" type="line"/>
      <point x="162" y="1090" type="line"/>
      <point x="469" y="1090" type="line"/>
      <point x="477" y="291" type="line"/>
    </contour>
  </outline>
</glyph>
<glyph name="braceleft" format="1">
  <advance width="905.216"/>
  <unicode hex="007B"/>
  <outline>
    <contour>
      <point x="778" y="1475" type="qcurve" smooth="yes"/>
      <point x="1085" y="1475" type="line"/>
      <point x="1055" y="1350" type="line"/>
      <point x="901" y="1350" type="line" smooth="yes"/>
      <point x="818.910447761" y="1350.0"/>
      <point x="729.417910448" y="1286.67164179"/>
      <point x="713" y="1221" type="qcurve" smooth="yes"/>
      <point x="695.835820896" y="1158.31343284"/>
      <point x="700.149253731" y="990.373134328"/>
      <point x="680" y="915" type="qcurve" smooth="yes"/>
      <point x="649.402985075" y="793.358208955"/>
      <point x="501.0" y="687.880597015"/>
      <point x="401" y="664" type="qcurve"/>
      <point x="397" y="647" type="line"/>
      <point x="482.820895522" y="617.895522388"/>
      <point x="557.0" y="537.149253731"/>
      <point x="557" y="467" type="qcurve" smooth="yes"/>
      <point x="557.0" y="366.253731343"/>
      <point x="428.0" y="133.358208955"/>
      <point x="428" y="55" type="qcurve" smooth="yes"/>
      <point x="428.0" y="10.9701492537"/>
      <point x="489.328358209" y="-39.0"/>
      <point x="555" y="-39" type="qcurve" smooth="yes"/>
      <point x="709" y="-39" type="line"/>
      <point x="676" y="-164" type="line"/>
      <point x="385" y="-164" type="line" smooth="yes"/>
      <point x="249.179104478" y="-164.0"/>
      <point x="135.0" y="-66.0895522388"/>
      <point x="135" y="16" type="qcurve" smooth="yes"/>
      <point x="135.0" y="129.432835821"/>
      <point x="268.0" y="355.71641791"/>
      <point x="268" y="449" type="qcurve" smooth="yes"/>
      <point x="268.0" y="519.149253731"/>
      <point x="155.925373134" y="594.0"/>
      <point x="41" y="594" type="qcurve"/>
      <point x="72" y="717" type="line"/>
      <point x="186.179104478" y="717.0"/>
      <point x="363.388059701" y="806.791044776"/>
      <point x="391" y="915" type="qcurve" smooth="yes"/>
      <point x="408.164179104" y="984.402985075"/>
      <point x="411.582089552" y="1164.34328358"/>
      <point x="428" y="1233" type="qcurve" smooth="yes"/>
      <point x="458.597014925" y="1356.88059701"/>
      <point x="631.731343284" y="1475.0"/>
    </contour>
  </outline>
</glyph>
<glyph name="bar" format="1">
  <advance width="532.48"/>
  <unicode hex="007C"/>
  <outline>
    <contour>
      <point x="391" y="1561" type="line"/>
      <point x="645" y="1561" type="line"/>
      <point x="162" y="-385" type="line"/>
      <point x="-92" y="-385" type="line"/>
    </contour>
  </outline>
</glyph>
<glyph name="braceright" format="1">
  <advance width="905.216"/>
  <unicode hex="007D"/>
  <outline>
    <contour>
      <point x="692" y="862" type="qcurve" smooth="yes"/>
      <point x="692.0" y="791.850746269"/>
      <point x="804.567164179" y="717.0"/>
      <point x="918" y="717" type="qcurve"/>
      <point x="889" y="594" type="line"/>
      <point x="774.074626866" y="594.0"/>
      <point x="596.611940299" y="503.955223881"/>
      <point x="569" y="395" type="qcurve" smooth="yes"/>
      <point x="552.582089552" y="326.343283582"/>
      <point x="549.164179104" y="146.656716418"/>
      <point x="532" y="78" type="qcurve" smooth="yes"/>
      <point x="502.149253731" y="-45.8805970149"/>
      <point x="329.014925373" y="-164.0"/>
      <point x="182" y="-164" type="qcurve" smooth="yes"/>
      <point x="-125" y="-164" type="line"/>
      <point x="-94" y="-39" type="line"/>
      <point x="59" y="-39" type="line" smooth="yes"/>
      <point x="141.835820896" y="-39.0"/>
      <point x="230.835820896" y="24.328358209"/>
      <point x="248" y="90" type="qcurve" smooth="yes"/>
      <point x="264.417910448" y="152.686567164"/>
      <point x="260.850746269" y="320.373134328"/>
      <point x="281" y="395" type="qcurve" smooth="yes"/>
      <point x="311.597014925" y="517.388059701"/>
      <point x="459.746268657" y="622.373134328"/>
      <point x="559" y="647" type="qcurve"/>
      <point x="563" y="664" type="line"/>
      <point x="477.925373134" y="692.358208955"/>
      <point x="403.0" y="773.850746269"/>
      <point x="403" y="844" type="qcurve" smooth="yes"/>
      <point x="403.0" y="944.746268657"/>
      <point x="532.0" y="1177.3880597"/>
      <point x="532" y="1255" type="qcurve" smooth="yes"/>
      <point x="532.0" y="1299.7761194"/>
      <point x="471.671641791" y="1350.0"/>
      <point x="406" y="1350" type="qcurve" smooth="yes"/>
      <point x="252" y="1350" type="line"/>
      <point x="285" y="1475" type="line"/>
      <point x="575" y="1475" type="line" smooth="yes"/>
      <point x="711.567164179" y="1475.0"/>
      <point x="825.0" y="1376.8358209"/>
      <point x="825" y="1294" type="qcurve" smooth="yes"/>
      <point x="825.0" y="1181.31343284"/>
      <point x="692.0" y="955.28358209"/>
    </contour>
  </outline>
</glyph>
<glyph name="sterling" format="1">
  <advance width="1243.136"/>
  <unicode hex="00A3"/>
  <outline>
    <contour>
      <point x="836" y="1499" type="qcurve" smooth="yes"/>
      <point x="1062.11940299" y="1499.0"/>
      <point x="1273.29850746" y="1318.46268657"/>
      <point x="1333" y="1161" type="qcurve"/>
      <point x="1055" y="1053" type="line"/>
      <point x="1014.70149254" y="1164.19402985"/>
      <point x="913.298507463" y="1266.0"/>
      <point x="823" y="1266" type="qcurve" smooth="yes"/>
      <point x="719.268656716" y="1266.0"/>
      <point x="614.0" y="1108.31343284"/>
      <point x="614" y="971" type="qcurve" smooth="yes"/>
      <point x="614" y="809" type="line"/>
      <point x="987" y="809" type="line"/>
      <point x="950" y="655" type="line"/>
      <point x="614" y="655" type="line"/>
      <point x="611.014925373" y="551.268656716"/>
      <point x="567.313432836" y="364.164179104"/>
      <point x="530" y="297" type="qcurve"/>
      <point x="571.791044776" y="269.388059701"/>
      <point x="658.253731343" y="238.0"/>
      <point x="709" y="238" type="qcurve" smooth="yes"/>
      <point x="786.611940299" y="238.0"/>
      <point x="904.313432836" y="324.298507463"/>
      <point x="967" y="434" type="qcurve"/>
      <point x="1161" y="362" type="line"/>
      <point x="1073.68656716" y="162.0"/>
      <point x="863.835820896" y="-12.0"/>
      <point x="731" y="-12" type="qcurve" smooth="yes"/>
      <point x="636.223880597" y="-12.0"/>
      <point x="477.298507463" y="57.8358208955"/>
      <point x="387" y="125" type="qcurve"/>
      <point x="307.895522388" y="65.2985074627"/>
      <point x="85.2985074627" y="-6.02985074627"/>
      <point x="-55" y="-12" type="qcurve"/>
      <point x="-2" y="207" type="line"/>
      <point x="164.417910448" y="240.582089552"/>
      <point x="317.0" y="440.492537313"/>
      <point x="317" y="639" type="qcurve" smooth="yes"/>
      <point x="317" y="655" type="line"/>
      <point x="94" y="655" type="line"/>
      <point x="133" y="809" type="line"/>
      <point x="317" y="809" type="line"/>
      <point x="317" y="956" type="line" smooth="yes"/>
      <point x="317.0" y="1209.73134328"/>
      <point x="583.76119403" y="1499.0"/>
    </contour>
  </outline>
</glyph>
<glyph name="section" format="1">
  <advance width="1241.088"/>
  <unicode hex="00A7"/>
  <outline>
    <contour>
      <point x="741" y="1499" type="qcurve" smooth="yes"/>
      <point x="901.447761194" y="1499.0"/>
      <point x="1184.80597015" y="1410.88059701"/>
      <point x="1296" y="1337" type="qcurve"/>
      <point x="1171" y="1151" type="line"/>
      <point x="1074.73134328" y="1212.19402985"/>
      <point x="834.253731343" y="1288.0"/>
      <point x="735" y="1288" type="qcurve" smooth="yes"/>
      <point x="666.343283582" y="1288.0"/>
      <point x="598.0" y="1244.56716418"/>
      <point x="598" y="1208" type="qcurve" smooth="yes"/>
      <point x="598.0" y="1171.43283582"/>
      <point x="691.014925373" y="1112.49253731"/>
      <point x="844" y="1061" type="qcurve" smooth="yes"/>
      <point x="1079.07462687" y="982.641791045"/>
      <point x="1235.0" y="842.059701493"/>
      <point x="1235" y="754" type="qcurve" smooth="yes"/>
      <point x="1235.0" y="640.567164179"/>
      <point x="1034.62686567" y="496.0"/>
      <point x="860" y="496" type="qcurve"/>
      <point x="856" y="483" type="line"/>
      <point x="926.149253731" y="443.447761194"/>
      <point x="1008.0" y="340.358208955"/>
      <point x="1008" y="262" type="qcurve" smooth="yes"/>
      <point x="1008.0" y="133.641791045"/>
      <point x="797.462686567" y="-25.0"/>
      <point x="590" y="-25" type="qcurve" smooth="yes"/>
      <point x="429.552238806" y="-25.0"/>
      <point x="146.194029851" y="63.8656716418"/>
      <point x="35" y="137" type="qcurve"/>
      <point x="160" y="324" type="line"/>
      <point x="256.268656716" y="262.805970149"/>
      <point x="496.746268657" y="186.0"/>
      <point x="596" y="186" type="qcurve" smooth="yes"/>
      <point x="664.656716418" y="186.0"/>
      <point x="733.0" y="229.432835821"/>
      <point x="733" y="266" type="qcurve" smooth="yes"/>
      <point x="733.0" y="302.567164179"/>
      <point x="639.985074627" y="361.76119403"/>
      <point x="487" y="414" type="qcurve" smooth="yes"/>
      <point x="251.925373134" y="491.611940299"/>
      <point x="96.0" y="632.194029851"/>
      <point x="96" y="721" type="qcurve" smooth="yes"/>
      <point x="96.0" y="833.686567164"/>
      <point x="297.119402985" y="979.0"/>
      <point x="471" y="979" type="qcurve"/>
      <point x="475" y="991" type="line"/>
      <point x="404.850746269" y="1030.55223881"/>
      <point x="324.0" y="1134.3880597"/>
      <point x="324" y="1212" type="qcurve" smooth="yes"/>
      <point x="324.0" y="1340.35820896"/>
      <point x="533.537313433" y="1499.0"/>
    </contour>
    <contour>
      <point x="782" y="580" type="qcurve" smooth="yes"/>
      <point x="878.268656716" y="580.0"/>
      <point x="979.0" y="642.507462687"/>
      <point x="979" y="694" type="qcurve" smooth="yes"/>
      <point x="979.0" y="727.582089552"/>
      <point x="905.23880597" y="800.208955224"/>
      <point x="803" y="842" type="qcurve" smooth="yes"/>
      <point x="750.76119403" y="862.895522388"/>
      <point x="608.701492537" y="895.0"/>
      <point x="549" y="895" type="qcurve" smooth="yes"/>
      <point x="452.731343284" y="895.0"/>
      <point x="352.0" y="832.23880597"/>
      <point x="352" y="780" type="qcurve" smooth="yes"/>
      <point x="352.0" y="746.417910448"/>
      <point x="425.76119403" y="674.044776119"/>
      <point x="528" y="633" type="qcurve" smooth="yes"/>
      <point x="580.23880597" y="611.358208955"/>
      <point x="722.298507463" y="580.0"/>
    </contour>
  </outline>
</glyph>
<glyph name="ordfeminine" format="1">
  <advance width="827.392"/>
  <unicode hex="00AA"/>
  <outline>
    <contour>
      <point x="627" y="1485" type="qcurve" smooth="yes"/>
      <point x="744.164179104" y="1485.0"/>
      <point x="860.0" y="1396.6119403"/>
      <point x="860" y="1319" type="qcurve" smooth="yes"/>
      <point x="860.0" y="1297.35820896"/>
      <point x="853.970149254" y="1246.88059701"/>
      <point x="848" y="1223" type="qcurve" smooth="yes"/>
      <point x="768" y="901" type="line" smooth="yes"/>
      <point x="766.507462687" y="892.044776119"/>
      <point x="762.0" y="871.462686567"/>
      <point x="762" y="864" type="qcurve" smooth="yes"/>
      <point x="762.0" y="846.089552239"/>
      <point x="788.402985075" y="825.985074627"/>
      <point x="819" y="823" type="qcurve"/>
      <point x="799" y="741" type="line"/>
      <point x="681.089552239" y="742.492537313"/>
      <point x="577.208955224" y="797.253731343"/>
      <point x="569" y="848" type="qcurve"/>
      <point x="506.313432836" y="792.776119403"/>
      <point x="396.179104478" y="739.0"/>
      <point x="332" y="739" type="qcurve" smooth="yes"/>
      <point x="260.358208955" y="739.0"/>
      <point x="172.0" y="822.373134328"/>
      <point x="172" y="897" type="qcurve" smooth="yes"/>
      <point x="172.0" y="1011.92537313"/>
      <point x="383.776119403" y="1172.29850746"/>
      <point x="639" y="1182" type="qcurve"/>
      <point x="651" y="1229" type="line" smooth="yes"/>
      <point x="653.985074627" y="1240.94029851"/>
      <point x="659.0" y="1267.04477612"/>
      <point x="659" y="1276" type="qcurve" smooth="yes"/>
      <point x="659.0" y="1308.08955224"/>
      <point x="614.28358209" y="1341.0"/>
      <point x="571" y="1341" type="qcurve" smooth="yes"/>
      <point x="522.492537313" y="1341.0"/>
      <point x="419.164179104" y="1314.08955224"/>
      <point x="352" y="1282" type="qcurve"/>
      <point x="319" y="1411" type="line"/>
      <point x="397.358208955" y="1447.56716418"/>
      <point x="548.641791045" y="1485.0"/>
    </contour>
    <contour>
      <point x="575" y="924" type="qcurve"/>
      <point x="621" y="1102" type="line"/>
      <point x="476.970149254" y="1093.04477612"/>
      <point x="371.0" y="1000.71641791"/>
      <point x="371" y="944" type="qcurve" smooth="yes"/>
      <point x="371.0" y="907.432835821"/>
      <point x="413.71641791" y="864.0"/>
      <point x="457" y="864" type="qcurve" smooth="yes"/>
      <point x="480.880597015" y="864.0"/>
      <point x="541.417910448" y="893.402985075"/>
    </contour>
    <contour>
      <point x="109" y="612" type="line"/>
      <point x="756" y="612" type="line"/>
      <point x="725" y="500" type="line"/>
      <point x="80" y="500" type="line"/>
    </contour>
  </outline>
</glyph>
<glyph name="degree" format="1">
  <advance width="819.2"/>
  <unicode hex="00B0"/>
  <outline>
    <contour>
      <point x="518" y="1483" type="qcurve" smooth="yes"/>
      <point x="657.552238806" y="1483.0"/>
      <point x="842.0" y="1302.55223881"/>
      <point x="842" y="1163" type="qcurve" smooth="yes"/>
      <point x="842.0" y="1022.70149254"/>
      <point x="657.552238806" y="842.0"/>
      <point x="518" y="842" type="qcurve" smooth="yes"/>
      <point x="379.194029851" y="842.0"/>
      <point x="193.0" y="1022.70149254"/>
      <point x="193" y="1163" type="qcurve" smooth="yes"/>
      <point x="193.0" y="1302.55223881"/>
      <point x="379.194029851" y="1483.0"/>
    </contour>
    <contour>
      <point x="518" y="973" type="qcurve" smooth="yes"/>
      <point x="596.358208955" y="973.0"/>
      <point x="692.0" y="1082.40298507"/>
      <point x="692" y="1163" type="qcurve" smooth="yes"/>
      <point x="692.0" y="1242.85074627"/>
      <point x="596.358208955" y="1352.0"/>
      <point x="518" y="1352" type="qcurve" smooth="yes"/>
      <point x="440.388059701" y="1352.0"/>
      <point x="344.0" y="1242.85074627"/>
      <point x="344" y="1163" type="qcurve" smooth="yes"/>
      <point x="344.0" y="1082.40298507"/>
      <point x="440.388059701" y="973.0"/>
    </contour>
  </outline>
</glyph>
<glyph name="acute" format="1">
  <advance width="1024.0"/>
  <unicode hex="00B4"/>
  <outline>
    <contour>
      <point x="676" y="1522" type="line"/>
      <point x="1028" y="1522" type="line"/>
      <point x="653" y="1212" type="line"/>
      <point x="451" y="1212" type="line"/>
    </contour>
  </outline>
</glyph>
<glyph name="paragraph" format="1">
  <advance width="1134.592"/>
  <unicode hex="00B6"/>
  <outline>
    <contour>
      <point x="766" y="1475" type="qcurve" smooth="yes"/>
      <point x="1231" y="1475" type="line"/>
      <point x="862" y="0" type="line"/>
      <point x="731" y="0" type="line"/>
      <point x="1067" y="1352" type="line"/>
      <point x="889" y="1352" type="line"/>
      <point x="553" y="0" type="line"/>
      <point x="420" y="0" type="line"/>
      <point x="578" y="635" type="line"/>
      <point x="412.328358209" y="662.611940299"/>
      <point x="182.0" y="837.910447761"/>
      <point x="182" y="1020" type="qcurve" smooth="yes"/>
      <point x="182.0" y="1217.01492537"/>
      <point x="489.134328358" y="1475.0"/>
    </contour>
  </outline>
</glyph>
<glyph name="Ccedilla" format="1">
  <advance width="1239.04"/>
  <unicode hex="00C7"/>
  <outline>
    <contour>
      <point x="831" y="1499" type="qcurve" smooth="yes"/>
      <point x="1081.74626866" y="1499.0"/>
      <point x="1302.65671642" y="1218.10447761"/>
      <point x="1284" y="989" type="qcurve"/>
      <point x="963" y="930" type="line"/>
      <point x="976.432835821" y="1094.92537313"/>
      <point x="899.268656716" y="1251.0"/>
      <point x="803" y="1251" type="qcurve" smooth="yes"/>
      <point x="695.537313433" y="1251.0"/>
      <point x="535.71641791" y="1005.47761194"/>
      <point x="479" y="801" type="qcurve" smooth="yes"/>
      <point x="449.895522388" y="692.044776119"/>
      <point x="424.0" y="523.686567164"/>
      <point x="424" y="461" type="qcurve" smooth="yes"/>
      <point x="424" y="455" type="line" smooth="yes"/>
      <point x="424.0" y="355.746268657"/>
      <point x="511.671641791" y="223.0"/>
      <point x="596" y="223" type="qcurve" smooth="yes"/>
      <point x="684.805970149" y="223.0"/>
      <point x="813.552238806" y="367.014925373"/>
      <point x="874" y="520" type="qcurve"/>
      <point x="1163" y="432" type="line"/>
      <point x="1065.23880597" y="201.402985075"/>
      <point x="791.656716418" y="-23.5074626866"/>
      <point x="573" y="-25" type="qcurve"/>
      <point x="494" y="-98" type="line"/>
      <point x="511.910447761" y="-95.0149253731"/>
      <point x="553.597014925" y="-92.0"/>
      <point x="573" y="-92" type="qcurve" smooth="yes"/>
      <point x="660.313432836" y="-92.0"/>
      <point x="745.0" y="-151.268656716"/>
      <point x="745" y="-205" type="qcurve" smooth="yes"/>
      <point x="745.0" y="-298.28358209"/>
      <point x="529.164179104" y="-391.0"/>
      <point x="362" y="-391" type="qcurve" smooth="yes"/>
      <point x="312.0" y="-391.0"/>
      <point x="202.059701493" y="-381.47761194"/>
      <point x="164" y="-377" type="qcurve"/>
      <point x="180" y="-315" type="line"/>
      <point x="219.552238806" y="-317.985074627"/>
      <point x="300.417910448" y="-326.0"/>
      <point x="334" y="-326" type="qcurve" smooth="yes"/>
      <point x="443.701492537" y="-326.0"/>
      <point x="555.0" y="-282.567164179"/>
      <point x="555" y="-246" type="qcurve" smooth="yes"/>
      <point x="555.0" y="-222.865671642"/>
      <point x="515.059701493" y="-197.0"/>
      <point x="477" y="-197" type="qcurve" smooth="yes"/>
      <point x="450.880597015" y="-197.0"/>
      <point x="401.597014925" y="-206.044776119"/>
      <point x="371" y="-215" type="qcurve"/>
      <point x="313" y="-172" type="line"/>
      <point x="477" y="-18" type="line"/>
      <point x="301.626865672" y="5.88059701493"/>
      <point x="96.0" y="256.791044776"/>
      <point x="96" y="465" type="qcurve" smooth="yes"/>
      <point x="96" y="473" type="line" smooth="yes"/>
      <point x="96.0" y="531.208955224"/>
      <point x="114.074626866" y="693.343283582"/>
      <point x="129" y="762" type="qcurve" smooth="yes"/>
      <point x="208.850746269" y="1116.47761194"/>
      <point x="556.373134328" y="1499.0"/>
    </contour>
  </outline>
</glyph>
<glyph name="multiply" format="1">
  <advance width="1228.8"/>
  <unicode hex="00D7"/>
  <outline>
    <contour>
      <point x="834" y="727" type="line"/>
      <point x="1180" y="393" type="line"/>
      <point x="995" y="207" type="line"/>
      <point x="659" y="553" type="line"/>
      <point x="326" y="207" type="line"/>
      <point x="141" y="393" type="line"/>
      <point x="485" y="727" type="line"/>
      <point x="141" y="1061" type="line"/>
      <point x="326" y="1247" type="line"/>
      <point x="659" y="901" type="line"/>
      <point x="995" y="1247" type="line"/>
      <point x="1180" y="1061" type="line"/>
    </contour>
  </outline>
</glyph>
<glyph name="divide" format="1">
  <advance width="1228.8"/>
  <unicode hex="00F7"/>
  <outline>
    <contour>
      <point x="659" y="430" type="qcurve" smooth="yes"/>
      <point x="732.880597015" y="430.0"/>
      <point x="831.0" y="331.134328358"/>
      <point x="831" y="258" type="qcurve" smooth="yes"/>
      <point x="831.0" y="184.865671642"/>
      <point x="732.880597015" y="86.0"/>
      <point x="659" y="86" type="qcurve" smooth="yes"/>
      <point x="585.865671642" y="86.0"/>
      <point x="487.0" y="184.865671642"/>
      <point x="487" y="258" type="qcurve" smooth="yes"/>
      <point x="487.0" y="331.134328358"/>
      <point x="585.865671642" y="430.0"/>
    </contour>
    <contour>
      <point x="659" y="1368" type="qcurve" smooth="yes"/>
      <point x="732.880597015" y="1368.0"/>
      <point x="831.0" y="1269.13432836"/>
      <point x="831" y="1196" type="qcurve" smooth="yes"/>
      <point x="831.0" y="1122.86567164"/>
      <point x="732.880597015" y="1024.0"/>
      <point x="659" y="1024" type="qcurve" smooth="yes"/>
      <point x="585.865671642" y="1024.0"/>
      <point x="487.0" y="1122.86567164"/>
      <point x="487" y="1196" type="qcurve" smooth="yes"/>
      <point x="487.0" y="1269.13432836"/>
      <point x="585.865671642" y="1368.0"/>
    </contour>
    <contour>
      <point x="1196" y="852" type="line"/>
      <point x="1196" y="602" type="line"/>
      <point x="123" y="602" type="line"/>
      <point x="123" y="852" type="line"/>
    </contour>
  </outline>
</glyph>
<glyph name="oslash" format="1">
  <advance width="1071.104"/>
  <unicode hex="00F8"/>
  <outline>
    <contour>
      <point x="1008" y="1284" type="line"/>
      <point x="1182" y="1284" type="line"/>
      <point x="946" y="989" type="line"/>
      <point x="987.044776119" y="940.492537313"/>
      <point x="1030.0" y="807.328358209"/>
      <point x="1030" y="723" type="qcurve" smooth="yes"/>
      <point x="1030" y="719" type="line" smooth="yes"/>
      <point x="1030.0" y="672.731343284"/>
      <point x="1013.17910448" y="556.47761194"/>
      <point x="999" y="502" type="qcurve" smooth="yes"/>
      <point x="940.044776119" y="261.701492537"/>
      <point x="660.626865672" y="-20.0"/>
      <point x="436" y="-20" type="qcurve" smooth="yes"/>
      <point x="373.313432836" y="-20.0"/>
      <point x="265.776119403" y="1.86567164179"/>
      <point x="221" y="25" type="qcurve"/>
      <point x="63" y="-195" type="line"/>
      <point x="-109" y="-195" type="line"/>
      <point x="123" y="100" type="line"/>
      <point x="83.447761194" y="149.253731343"/>
      <point x="41.0" y="282.671641791"/>
      <point x="41" y="367" type="qcurve" smooth="yes"/>
      <point x="41" y="371" type="line" smooth="yes"/>
      <point x="41.0" y="416.52238806"/>
      <point x="57.8208955224" y="532.776119403"/>
      <point x="72" y="588" type="qcurve" smooth="yes"/>
      <point x="133.194029851" y="827.552238806"/>
      <point x="411.865671642" y="1110.0"/>
      <point x="635" y="1110" type="qcurve" smooth="yes"/>
      <point x="697.686567164" y="1110.0"/>
      <point x="805.970149254" y="1088.13432836"/>
      <point x="850" y="1065" type="qcurve"/>
    </contour>
    <contour>
      <point x="311" y="313" type="line"/>
      <point x="725" y="889" type="line"/>
      <point x="707.835820896" y="912.134328358"/>
      <point x="657.089552239" y="936.0"/>
      <point x="625" y="936" type="qcurve" smooth="yes"/>
      <point x="531.71641791" y="936.0"/>
      <point x="401.28358209" y="761.970149254"/>
      <point x="358" y="606" type="qcurve" smooth="yes"/>
      <point x="335.611940299" y="526.895522388"/>
      <point x="311.0" y="388.23880597"/>
      <point x="311" y="336" type="qcurve" smooth="yes"/>
    </contour>
    <contour>
      <point x="446" y="156" type="qcurve" smooth="yes"/>
      <point x="540.776119403" y="156.0"/>
      <point x="669.71641791" y="327.029850746"/>
      <point x="713" y="483" type="qcurve" smooth="yes"/>
      <point x="735.388059701" y="562.850746269"/>
      <point x="760.0" y="701.76119403"/>
      <point x="760" y="754" type="qcurve" smooth="yes"/>
      <point x="760" y="776" type="line"/>
      <point x="346" y="201" type="line"/>
      <point x="364.656716418" y="177.865671642"/>
      <point x="413.910447761" y="156.0"/>
    </contour>
  </outline>
</glyph>
<glyph name="dotlessi" format="1">
  <advance width="536.576"/>
  <unicode hex="0131"/>
  <outline>
    <contour>
      <point x="250" y="1090" type="line"/>
      <point x="559" y="1090" type="line"/>
      <point x="287" y="0" type="line"/>
      <point x="-20" y="0" type="line"/>
    </contour>
  </outline>
</glyph>
<glyph name="Lslash" format="1">
  <advance width="1153.024"/>
  <unicode hex="0141"/>
  <outline>
    <contour>
      <point x="449" y="272" type="line"/>
      <point x="1049" y="272" type="line"/>
      <point x="979" y="0" type="line"/>
      <point x="61" y="0" type="line"/>
      <point x="209" y="588" type="line"/>
      <point x="35" y="522" type="line"/>
      <point x="98" y="778" type="line"/>
      <point x="272" y="844" type="line"/>
      <point x="430" y="1475" type="line"/>
      <point x="750" y="1475" type="line"/>
      <point x="625" y="973" type="line"/>
      <point x="918" y="1085" type="line"/>
      <point x="852" y="827" type="line"/>
      <point x="559" y="717" type="line"/>
    </contour>
  </outline>
</glyph>
<glyph name="lslash" format="1">
  <advance width="694.272"/>
  <unicode hex="0142"/>
  <outline>
    <contour>
      <point x="598" y="956" type="line"/>
      <point x="772" y="1024" type="line"/>
      <point x="711" y="776" type="line"/>
      <point x="537" y="711" type="line"/>
      <point x="360" y="0" type="line"/>
      <point x="63" y="0" type="line"/>
      <point x="211" y="592" type="line"/>
      <point x="37" y="526" type="line"/>
      <point x="98" y="774" type="line"/>
      <point x="272" y="840" type="line"/>
      <point x="436" y="1501" type="line"/>
      <point x="745" y="1550" type="line"/>
    </contour>
  </outline>
</glyph>
<glyph name="OE" format="1">
  <advance width="1845.248"/>
  <unicode hex="0152"/>
  <outline>
    <contour>
      <point x="930" y="1475" type="qcurve" smooth="yes"/>
      <point x="1993" y="1475" type="line"/>
      <point x="1929" y="1221" type="line"/>
      <point x="1329" y="1221" type="line"/>
      <point x="1243" y="881" type="line"/>
      <point x="1688" y="881" type="line"/>
      <point x="1628" y="641" type="line"/>
      <point x="1184" y="641" type="line"/>
      <point x="1087" y="254" type="line"/>
      <point x="1712" y="254" type="line"/>
      <point x="1649" y="0" type="line"/>
      <point x="639" y="0" type="line" smooth="yes"/>
      <point x="382.28358209" y="0.0"/>
      <point x="92.0" y="242.746268657"/>
      <point x="92" y="492" type="qcurve" smooth="yes"/>
      <point x="92" y="498" type="line" smooth="yes"/>
      <point x="92.0" y="559.194029851"/>
      <point x="105.835820896" y="678.119402985"/>
      <point x="123" y="752" type="qcurve" smooth="yes"/>
      <point x="207.328358209" y="1121.40298507"/>
      <point x="606.119402985" y="1475.0"/>
    </contour>
    <contour>
      <point x="770" y="248" type="line"/>
      <point x="1014" y="1227" type="line"/>
      <point x="911" y="1227" type="line" smooth="yes"/>
      <point x="749.059701493" y="1227.0"/>
      <point x="527.179104478" y="1004.02985075"/>
      <point x="463" y="760" type="qcurve" smooth="yes"/>
      <point x="447.328358209" y="701.791044776"/>
      <point x="432.0" y="575.223880597"/>
      <point x="432" y="520" type="qcurve" smooth="yes"/>
      <point x="432" y="510" type="line" smooth="yes"/>
      <point x="432.0" y="384.626865672"/>
      <point x="564.597014925" y="248.0"/>
      <point x="684" y="248" type="qcurve" smooth="yes"/>
    </contour>
  </outline>
</glyph>
<glyph name="breve" format="1">
  <advance width="1024.0"/>
  <unicode hex="02D8"/>
  <outline>
    <contour>
      <point x="944" y="1552" type="qcurve"/>
      <point x="1073" y="1552" type="line"/>
      <point x="1028.97014925" y="1390.05970149"/>
      <point x="841.940298507" y="1206.0"/>
      <point x="680" y="1206" type="qcurve" smooth="yes"/>
      <point x="544.179104478" y="1206.0"/>
      <point x="410.0" y="1334.56716418"/>
      <point x="410" y="1448" type="qcurve" smooth="yes"/>
      <point x="410.0" y="1471.13432836"/>
      <point x="416.029850746" y="1525.13432836"/>
      <point x="422" y="1552" type="qcurve"/>
      <point x="543" y="1552" type="line"/>
      <point x="543.0" y="1543.04477612"/>
      <point x="541.0" y="1525.97014925"/>
      <point x="541" y="1520" type="qcurve" smooth="yes"/>
      <point x="541.0" y="1450.59701493"/>
      <point x="617.686567164" y="1370.0"/>
      <point x="705" y="1370" type="qcurve" smooth="yes"/>
      <point x="801.268656716" y="1370.0"/>
      <point x="911.910447761" y="1468.41791045"/>
    </contour>
  </outline>
</glyph>
<glyph name="ring" format="1">
  <advance width="1024.0"/>
  <unicode hex="02DA"/>
  <outline>
    <contour>
      <point x="713" y="1610" type="qcurve" smooth="yes"/>
      <point x="830.164179104" y="1610.0"/>
      <point x="967.0" y="1495.29850746"/>
      <point x="967" y="1405" type="qcurve" smooth="yes"/>
      <point x="967.0" y="1311.71641791"/>
      <point x="830.164179104" y="1198.0"/>
      <point x="713" y="1198" type="qcurve" smooth="yes"/>
      <point x="593.597014925" y="1198.0"/>
      <point x="457.0" y="1311.71641791"/>
      <point x="457" y="1405" type="qcurve" smooth="yes"/>
      <point x="457.0" y="1495.29850746"/>
      <point x="593.597014925" y="1610.0"/>
    </contour>
    <contour>
      <point x="713" y="1294" type="qcurve" smooth="yes"/>
      <point x="758.52238806" y="1294.0"/>
      <point x="817.0" y="1357.23880597"/>
      <point x="817" y="1405" type="qcurve" smooth="yes"/>
      <point x="817.0" y="1452.01492537"/>
      <point x="757.029850746" y="1513.0"/>
      <point x="713" y="1513" type="qcurve" smooth="yes"/>
      <point x="666.731343284" y="1513.0"/>
      <point x="608.0" y="1452.01492537"/>
      <point x="608" y="1405" type="qcurve" smooth="yes"/>
      <point x="608.0" y="1357.23880597"/>
      <point x="665.23880597" y="1294.0"/>
    </contour>
  </outline>
</glyph>
<glyph name="ogonek" format="1">
  <advance width="1024.0"/>
  <unicode hex="02DB"/>
  <outline>
    <contour>
      <point x="575" y="-244" type="qcurve"/>
      <point x="592" y="-322" type="line"/>
      <point x="517.373134328" y="-355.582089552"/>
      <point x="368.641791045" y="-389.0"/>
      <point x="297" y="-389" type="qcurve" smooth="yes"/>
      <point x="196.253731343" y="-389.0"/>
      <point x="90.0" y="-319.194029851"/>
      <point x="90" y="-258" type="qcurve" smooth="yes"/>
      <point x="90.0" y="-195.313432836"/>
      <point x="222.686567164" y="-59.7014925373"/>
      <point x="360" y="0" type="qcurve"/>
      <point x="496" y="0" type="line"/>
      <point x="382.567164179" y="-68.6567164179"/>
      <point x="301.0" y="-172.940298507"/>
      <point x="301" y="-211" type="qcurve" smooth="yes"/>
      <point x="301.0" y="-238.611940299"/>
      <point x="349.47761194" y="-274.0"/>
      <point x="395" y="-274" type="qcurve" smooth="yes"/>
      <point x="438.28358209" y="-274.0"/>
      <point x="519.029850746" y="-260.417910448"/>
    </contour>
  </outline>
</glyph>
<glyph name="tilde" format="1">
  <advance width="1024.0"/>
  <unicode hex="02DC"/>
  <outline>
    <contour>
      <point x="963" y="1516" type="qcurve"/>
      <point x="1104" y="1516" type="line"/>
      <point x="1076.3880597" y="1358.53731343"/>
      <point x="947.223880597" y="1210.0"/>
      <point x="842" y="1210" type="qcurve" smooth="yes"/>
      <point x="741.253731343" y="1210.0"/>
      <point x="622.223880597" y="1319.0"/>
      <point x="567" y="1319" type="qcurve" smooth="yes"/>
      <point x="530.432835821" y="1319.0"/>
      <point x="484.432835821" y="1269.2238806"/>
      <point x="471" y="1214" type="qcurve"/>
      <point x="328" y="1214" type="line"/>
      <point x="355.611940299" y="1369.97014925"/>
      <point x="482.537313433" y="1520.0"/>
      <point x="590" y="1520" type="qcurve" smooth="yes"/>
      <point x="690.746268657" y="1520.0"/>
      <point x="809.52238806" y="1411.0"/>
      <point x="864" y="1411" type="qcurve" smooth="yes"/>
      <point x="900.567164179" y="1411.0"/>
      <point x="947.328358209" y="1460.7761194"/>
    </contour>
  </outline>
</glyph>
<glyph name="endash" format="1">
  <advance width="1024.0"/>
  <unicode hex="2013"/>
  <outline>
    <contour>
      <point x="111" y="717" type="line"/>
      <point x="999" y="717" type="line"/>
      <point x="934" y="463" type="line"/>
      <point x="45" y="463" type="line"/>
    </contour>
  </outline>
</glyph>
<glyph name="quoteleft" format="1">
  <advance width="483.328"/>
  <unicode hex="2018"/>
  <unicode hex="02BB"/>
  <outline>
    <contour>
      <point x="274" y="1475" type="line"/>
      <point x="596" y="1475" type="line"/>
      <point x="520" y="901" type="line"/>
      <point x="354" y="901" type="line"/>
    </contour>
  </outline>
</glyph>
<glyph name="quoteright" format="1">
  <advance width="483.328"/>
  <unicode hex="2019"/>
  <unicode hex="02BC"/>
  <outline>
    <contour>
      <point x="350" y="1475" type="line"/>
      <point x="688" y="1475" type="line"/>
      <point x="342" y="901" type="line"/>
      <point x="158" y="901" type="line"/>
    </contour>
  </outline>
</glyph>
<glyph name="quotesinglbase" format="1">
  <advance width="483.328"/>
  <unicode hex="201A"/>
  <outline>
    <contour>
      <point x="57" y="338" type="line"/>
      <point x="397" y="338" type="line"/>
      <point x="51" y="-236" type="line"/>
      <point x="-133" y="-236" type="line"/>
    </contour>
  </outline>
</glyph>
<glyph name="quotedblright" format="1">
  <advance width="905.216"/>
  <unicode hex="201D"/>
  <outline>
    <contour>
      <point x="350" y="1475" type="line"/>
      <point x="682" y="1475" type="line"/>
      <point x="336" y="901" type="line"/>
      <point x="158" y="901" type="line"/>
    </contour>
    <contour>
      <point x="778" y="1475" type="line"/>
      <point x="1110" y="1475" type="line"/>
      <point x="764" y="901" type="line"/>
      <point x="586" y="901" type="line"/>
    </contour>
  </outline>
</glyph>
<glyph name="quotedblbase" format="1">
  <advance width="905.216"/>
  <unicode hex="201E"/>
  <outline>
    <contour>
      <point x="57" y="338" type="line"/>
      <point x="391" y="338" type="line"/>
      <point x="45" y="-236" type="line"/>
      <point x="-133" y="-236" type="line"/>
    </contour>
    <contour>
      <point x="485" y="338" type="line"/>
      <point x="819" y="338" type="line"/>
      <point x="473" y="-236" type="line"/>
      <point x="295" y="-236" type="line"/>
    </contour>
  </outline>
</glyph>
<glyph name="daggerdbl" format="1">
  <advance width="1044.48"/>
  <unicode hex="2021"/>
  <outline>
    <contour>
      <point x="743" y="1098" type="line"/>
      <point x="1120" y="1171" type="line"/>
      <point x="1061" y="936" type="line"/>
      <point x="719" y="1008" type="line"/>
      <point x="725" y="737" type="line"/>
      <point x="586" y="467" type="line"/>
      <point x="963" y="539" type="line"/>
      <point x="903" y="303" type="line"/>
      <point x="561" y="377" type="line"/>
      <point x="547" y="0" type="line"/>
      <point x="223" y="0" type="line"/>
      <point x="397" y="377" type="line"/>
      <point x="20" y="303" type="line"/>
      <point x="80" y="539" type="line"/>
      <point x="422" y="467" type="line"/>
      <point x="414" y="737" type="line"/>
      <point x="555" y="1008" type="line"/>
      <point x="178" y="936" type="line"/>
      <point x="238" y="1171" type="line"/>
      <point x="580" y="1098" type="line"/>
      <point x="592" y="1475" type="line"/>
      <point x="915" y="1475" type="line"/>
    </contour>
  </outline>
</glyph>
<glyph name="perthousand" format="1">
  <advance width="2764.8"/>
  <unicode hex="2030"/>
  <outline>
    <contour>
      <point x="608" y="1489" type="qcurve" smooth="yes"/>
      <point x="747.552238806" y="1489.0"/>
      <point x="934.0" y="1331.44776119"/>
      <point x="934" y="1171" type="qcurve" smooth="yes"/>
      <point x="934.0" y="983.686567164"/>
      <point x="686.701492537" y="627.0"/>
      <point x="477" y="627" type="qcurve" smooth="yes"/>
      <point x="338.194029851" y="627.0"/>
      <point x="152.0" y="787.552238806"/>
      <point x="152" y="948" type="qcurve" smooth="yes"/>
      <point x="152.0" y="1136.05970149"/>
      <point x="399.044776119" y="1489.0"/>
    </contour>
    <contour>
      <point x="492" y="803" type="qcurve" smooth="yes"/>
      <point x="598.71641791" y="803.0"/>
      <point x="711.0" y="1059.74626866"/>
      <point x="711" y="1159" type="qcurve" smooth="yes"/>
      <point x="711.0" y="1230.64179104"/>
      <point x="647.731343284" y="1313.0"/>
      <point x="594" y="1313" type="qcurve" smooth="yes"/>
      <point x="488.776119403" y="1313.0"/>
      <point x="375.0" y="1056.0"/>
      <point x="375" y="956" type="qcurve" smooth="yes"/>
      <point x="375.0" y="884.358208955"/>
      <point x="438.268656716" y="803.0"/>
    </contour>
    <contour>
      <point x="1518" y="848" type="qcurve" smooth="yes"/>
      <point x="1656.80597015" y="848.0"/>
      <point x="1843.0" y="686.447761194"/>
      <point x="1843" y="526" type="qcurve" smooth="yes"/>
      <point x="1843.0" y="337.940298507"/>
      <point x="1597.95522388" y="-14.0"/>
      <point x="1389" y="-14" type="qcurve" smooth="yes"/>
      <point x="1249.44776119" y="-14.0"/>
      <point x="1063.0" y="146.552238806"/>
      <point x="1063" y="307" type="qcurve" smooth="yes"/>
      <point x="1063.0" y="495.059701493"/>
      <point x="1308.29850746" y="848.0"/>
    </contour>
    <contour>
      <point x="1403" y="162" type="qcurve" smooth="yes"/>
      <point x="1508.2238806" y="162.0"/>
      <point x="1622.0" y="418.746268657"/>
      <point x="1622" y="518" type="qcurve" smooth="yes"/>
      <point x="1622.0" y="589.641791045"/>
      <point x="1558.73134328" y="672.0"/>
      <point x="1505" y="672" type="qcurve" smooth="yes"/>
      <point x="1398.28358209" y="672.0"/>
      <point x="1286.0" y="415.0"/>
      <point x="1286" y="315" type="qcurve" smooth="yes"/>
      <point x="1286.0" y="243.358208955"/>
      <point x="1349.26865672" y="162.0"/>
    </contour>
    <contour>
      <point x="2378" y="848" type="qcurve" smooth="yes"/>
      <point x="2516.80597015" y="848.0"/>
      <point x="2703.0" y="686.447761194"/>
      <point x="2703" y="526" type="qcurve" smooth="yes"/>
      <point x="2703.0" y="337.940298507"/>
      <point x="2457.95522388" y="-14.0"/>
      <point x="2249" y="-14" type="qcurve" smooth="yes"/>
      <point x="2109.44776119" y="-14.0"/>
      <point x="1923.0" y="146.552238806"/>
      <point x="1923" y="307" type="qcurve" smooth="yes"/>
      <point x="1923.0" y="495.059701493"/>
      <point x="2168.29850746" y="848.0"/>
    </contour>
    <contour>
      <point x="2263" y="162" type="qcurve" smooth="yes"/>
      <point x="2368.2238806" y="162.0"/>
      <point x="2482.0" y="418.746268657"/>
      <point x="2482" y="518" type="qcurve" smooth="yes"/>
      <point x="2482.0" y="589.641791045"/>
      <point x="2418.73134328" y="672.0"/>
      <point x="2365" y="672" type="qcurve" smooth="yes"/>
      <point x="2258.28358209" y="672.0"/>
      <point x="2146.0" y="415.0"/>
      <point x="2146" y="315" type="qcurve" smooth="yes"/>
      <point x="2146.0" y="243.358208955"/>
      <point x="2209.26865672" y="162.0"/>
    </contour>
    <contour>
      <point x="1499" y="1475" type="line"/>
      <point x="1776" y="1475" type="line"/>
      <point x="1061" y="709" type="line"/>
      <point x="498" y="0" type="line"/>
      <point x="219" y="0" type="line"/>
      <point x="936" y="766" type="line"/>
    </contour>
  </outline>
</glyph>
<glyph name="Euro" format="1">
  <advance width="1245.184"/>
  <unicode hex="20AC"/>
  <outline>
    <contour>
      <point x="829" y="1499" type="qcurve" smooth="yes"/>
      <point x="1035.71641791" y="1499.0"/>
      <point x="1258.79104478" y="1318.91044776"/>
      <point x="1317" y="1151" type="qcurve"/>
      <point x="1075" y="1001" type="line"/>
      <point x="1035.44776119" y="1136.07462687"/>
      <point x="917.23880597" y="1268.0"/>
      <point x="815" y="1268" type="qcurve" smooth="yes"/>
      <point x="706.791044776" y="1268.0"/>
      <point x="543.492537313" y="1094.0"/>
      <point x="492" y="944" type="qcurve"/>
      <point x="907" y="944" type="line"/>
      <point x="874" y="809" type="line"/>
      <point x="453" y="809" type="line"/>
      <point x="440.313432836" y="766.462686567"/>
      <point x="423.970149254" y="683.059701493"/>
      <point x="418" y="645" type="qcurve"/>
      <point x="834" y="645" type="line"/>
      <point x="799" y="510" type="line"/>
      <point x="403" y="510" type="line"/>
      <point x="401.507462687" y="499.552238806"/>
      <point x="401.0" y="479.955223881"/>
      <point x="401" y="471" type="qcurve" smooth="yes"/>
      <point x="401" y="463" type="line" smooth="yes"/>
      <point x="401.0" y="352.552238806"/>
      <point x="511.059701493" y="203.0"/>
      <point x="623" y="203" type="qcurve" smooth="yes"/>
      <point x="714.044776119" y="203.0"/>
      <point x="877.71641791" y="322.835820896"/>
      <point x="971" y="440" type="qcurve"/>
      <point x="1124" y="264" type="line"/>
      <point x="1006.8358209" y="120.71641791"/>
      <point x="748.447761194" y="-25.0"/>
      <point x="588" y="-25" type="qcurve" smooth="yes"/>
      <point x="353.671641791" y="-25.0"/>
      <point x="96.0" y="234.402985075"/>
      <point x="96" y="465" type="qcurve" smooth="yes"/>
      <point x="96" y="473" type="line" smooth="yes"/>
      <point x="96.0" y="537.179104478"/>
      <point x="111.328358209" y="701.820895522"/>
      <point x="127" y="766" type="qcurve" smooth="yes"/>
      <point x="204.611940299" y="1108.53731343"/>
      <point x="549.895522388" y="1499.0"/>
    </contour>
  </outline>
</glyph>
<glyph name="trademark" format="1">
  <advance width="1597.44"/>
  <unicode hex="2122"/>
  <outline>
    <contour>
      <point x="1483" y="1475" type="line"/>
      <point x="1731" y="1475" type="line"/>
      <point x="1559" y="780" type="line"/>
      <point x="1397" y="780" type="line"/>
      <point x="1526" y="1298" type="line"/>
      <point x="1522" y="1298" type="line"/>
      <point x="1243" y="780" type="line"/>
      <point x="1085" y="780" type="line"/>
      <point x="1065" y="1298" type="line"/>
      <point x="1059" y="1298" type="line"/>
      <point x="932" y="780" type="line"/>
      <point x="778" y="780" type="line"/>
      <point x="950" y="1475" type="line"/>
      <point x="1198" y="1475" type="line"/>
      <point x="1217" y="993" type="line"/>
      <point x="1221" y="993" type="line"/>
    </contour>
    <contour>
      <point x="293" y="1475" type="line"/>
      <point x="846" y="1475" type="line"/>
      <point x="811" y="1333" type="line"/>
      <point x="621" y="1333" type="line"/>
      <point x="483" y="780" type="line"/>
      <point x="311" y="780" type="line"/>
      <point x="449" y="1333" type="line"/>
      <point x="256" y="1333" type="line"/>
    </contour>
  </outline>
</glyph>
<glyph name="radical" format="1">
  <advance width="1234.944"/>
  <unicode hex="221A"/>
  <outline>
    <contour>
      <point x="1061" y="1475" type="line"/>
      <point x="1413" y="1475" type="line"/>
      <point x="596" y="-8" type="line"/>
      <point x="260" y="-8" type="line"/>
      <point x="90" y="696" type="line"/>
      <point x="399" y="696" type="line"/>
      <point x="475" y="246" type="line"/>
    </contour>
  </outline>
</glyph>
<glyph name="I.salt" format="1">
  <advance width="585.728"/>
  <outline>
    <contour>
      <point x="360" y="1475" type="line"/>
      <point x="688" y="1475" type="line"/>
      <point x="319" y="0" type="line"/>
      <point x="-8" y="0" type="line"/>
    </contour>
  </outline>
</glyph>
<glyph name="bullet" format="1">
  <advance width="876.544"/>
  <outline>
    <contour>
      <point x="492" y="1120" type="qcurve" smooth="yes"/>
      <point x="641.253731343" y="1120.0"/>
      <point x="850.0" y="914.0"/>
      <point x="850" y="764" type="qcurve" smooth="yes"/>
      <point x="850.0" y="614.0"/>
      <point x="641.253731343" y="408.0"/>
      <point x="492" y="408" type="qcurve" smooth="yes"/>
      <point x="342.0" y="408.0"/>
      <point x="135.0" y="614.0"/>
      <point x="135" y="764" type="qcurve" smooth="yes"/>
      <point x="135.0" y="914.0"/>
      <point x="342.0" y="1120.0"/>
    </contour>
  </outline>
</glyph>
<glyph name="endash.uc" format="1">
  <advance width="1228.8"/>
  <outline>
    <contour>
      <point x="1196" y="862" type="line"/>
      <point x="1196" y="592" type="line"/>
      <point x="123" y="592" type="line"/>
      <point x="123" y="862" type="line"/>
    </contour>
  </outline>
</glyph>
<glyph name="macron" format="1">
  <advance width="1024.0"/>
  <outline>
    <contour>
      <point x="432" y="1458" type="line"/>
      <point x="1044" y="1458" type="line"/>
      <point x="999" y="1276" type="line"/>
      <point x="387" y="1276" type="line"/>
    </contour>
  </outline>
</glyph>
<glyph name="registered" format="1">
  <advance width="1048.576"/>
  <outline>
    <contour>
      <point x="750" y="1001" type="qcurve"/>
      <point x="877" y="778" type="line"/>
      <point x="739" y="778" type="line"/>
      <point x="625" y="983" type="line"/>
      <point x="594" y="983" type="line"/>
      <point x="594" y="778" type="line"/>
      <point x="465" y="778" type="line"/>
      <point x="465" y="1303" type="line"/>
      <point x="659" y="1303" type="line" smooth="yes"/>
      <point x="746.313432836" y="1303.0"/>
      <point x="850.0" y="1224.10447761"/>
      <point x="850" y="1145" type="qcurve" smooth="yes"/>
      <point x="850.0" y="1091.26865672"/>
      <point x="797.014925373" y="1018.1641791"/>
    </contour>
    <contour>
      <point x="647" y="1489" type="qcurve" smooth="yes"/>
      <point x="841.029850746" y="1489.0"/>
      <point x="1102.0" y="1227.52238806"/>
      <point x="1102" y="1032" type="qcurve" smooth="yes"/>
      <point x="1102.0" y="837.970149254"/>
      <point x="838.52238806" y="573.0"/>
      <point x="643" y="573" type="qcurve" smooth="yes"/>
      <point x="448.970149254" y="573.0"/>
      <point x="188.0" y="834.47761194"/>
      <point x="188" y="1030" type="qcurve" smooth="yes"/>
      <point x="188.0" y="1225.52238806"/>
      <point x="451.47761194" y="1489.0"/>
    </contour>
    <contour>
      <point x="647" y="625" type="qcurve" smooth="yes"/>
      <point x="821.626865672" y="625.0"/>
      <point x="1044.0" y="856.119402985"/>
      <point x="1044" y="1030" type="qcurve" smooth="yes"/>
      <point x="1044.0" y="1206.11940299"/>
      <point x="819.119402985" y="1440.0"/>
      <point x="643" y="1440" type="qcurve" smooth="yes"/>
      <point x="469.119402985" y="1440.0"/>
      <point x="246.0" y="1206.62686567"/>
      <point x="246" y="1032" type="qcurve" smooth="yes"/>
      <point x="246.0" y="858.119402985"/>
      <point x="471.626865672" y="625.0"/>
    </contour>
    <contour>
      <point x="645" y="1069" type="line" smooth="yes"/>
      <point x="683.059701493" y="1069.0"/>
      <point x="725.0" y="1106.43283582"/>
      <point x="725" y="1143" type="qcurve" smooth="yes"/>
      <point x="725.0" y="1178.07462687"/>
      <point x="683.059701493" y="1212.0"/>
      <point x="645" y="1212" type="qcurve" smooth="yes"/>
      <point x="586" y="1212" type="line"/>
      <point x="586" y="1069" type="line"/>
    </contour>
  </outline>
</glyph>
